<svg xmlns="http://www.w3.org/2000/svg"><polygon points="106.7619,131.19048 17.190475,96.809525 22.619047,71.47619 34.38095,47.95238 46.142857,39.809525 157.42857,105.85714 106.7619,131.19048 " style="fill:#cccccc;stroke:rgb(0,255,0);stroke-width:2"/><polygon points="17.190475,96.809525 106.7619,131.19048 85.04762,188.19048 17.190475,187.2857 17.190475,96.809525 " style="fill:#cccccc;stroke:rgb(0,255,0);stroke-width:2"/><polygon points="142.04762,250.61905 76.0,197.2381 16.285713,199.04762 15.380952,265.09525 26.238094,287.7143 45.238094,298.57144 142.04762,250.61905 " style="fill:#cccccc;stroke:rgb(0,255,0);stroke-width:2"/><polygon points="53.38095,314.85715 72.38095,328.42856 96.809525,332.9524 272.33334,329.33334 291.33334,244.2857 242.4762,211.7143 53.38095,314.85715 " style="fill:#cccccc;stroke:rgb(0,255,0);stroke-width:2"/><polygon points="298.57144,252.42857 324.8095,254.2381 332.9524,327.5238 285.0,328.42856 298.57144,252.42857 " style="fill:#cccccc;stroke:rgb(0,255,0);stroke-width:2"/><polygon points="352.85715,325.7143 337.4762,248.80952 376.38095,214.42857 545.5714,303.09525 544.6667,328.42856 527.4762,331.14285 352.85715,325.7143 " style="fill:#cccccc;stroke:rgb(0,255,0);stroke-width:2"/><polygon points="237.95238,126.66667 289.5238,92.28571 276.85715,13.571429 86.85714,14.47619 66.95238,20.809525 56.095238,32.57143 237.95238,126.66667 " style="fill:#cccccc;stroke:rgb(0,255,0);stroke-width:2"/><polygon points="299.4762,89.57143 319.38095,88.666664 334.7619,17.190475 288.61905,16.285713 299.4762,89.57143 " style="fill:#cccccc;stroke:rgb(0,255,0);stroke-width:2"/><polygon points="377.2857,127.57143 325.7143,92.28571 345.61905,16.285713 532.9048,14.47619 559.1428,33.476192 523.8571,54.285713 377.2857,127.57143 " style="fill:#cccccc;stroke:rgb(0,255,0);stroke-width:2"/><polygon points="393.57144,171.90475 522.9524,158.33333 514.8095,72.38095 385.42856,139.33333 393.57144,171.90475 " style="fill:#cccccc;stroke:rgb(0,255,0);stroke-width:2"/><polygon points="522.9524,158.33333 393.57144,171.90475 380.90475,203.57143 468.66666,243.38095 508.4762,210.80952 522.9524,158.33333 " style="fill:#cccccc;stroke:rgb(0,255,0);stroke-width:2"/><polygon points="532.0,191.80952 585.3809,189.09525 586.2857,150.19048 531.0952,152.0 532.0,191.80952 " style="fill:#cccccc;stroke:rgb(0,255,0);stroke-width:2"/><polygon points="523.8571,67.85714 572.7143,39.809525 588.0952,58.809525 590.8095,103.14286 584.4762,141.14285 531.0952,140.2381 523.8571,67.85714 " style="fill:#cccccc;stroke:rgb(0,255,0);stroke-width:2"/><polygon points="528.3809,251.5238 587.1905,257.85715 579.9524,285.90475 560.9524,300.38095 517.5238,273.2381 528.3809,251.5238 " style="fill:#cccccc;stroke:rgb(0,255,0);stroke-width:2"/><polygon points="587.1905,257.85715 528.3809,251.5238 532.0,199.04762 587.1905,197.2381 587.1905,257.85715 " style="fill:#cccccc;stroke:rgb(0,255,0);stroke-width:2"/><polygon points="477.7143,250.61905 507.57144,267.8095 517.5238,247.0 518.4286,217.14285 477.7143,250.61905 " style="fill:#cccccc;stroke:rgb(0,255,0);stroke-width:2"/><polygon points="268.7143,139.33333 284.09525,125.7619 309.42856,120.33333 341.09525,133.90475 359.1905,161.95238 360.09525,188.19048 347.42856,207.19048 321.1905,221.66667 294.0476,222.57143 274.14285,209.90475 257.85715,188.19048 258.7619,157.42857 268.7143,139.33333 " style="fill:#cccccc;stroke:rgb(0,255,0);stroke-width:2"/></svg>