<svg xmlns="http://www.w3.org/2000/svg"><polygon points="106.7619,131.19048 17.190475,96.809525 22.619047,71.47619 34.38095,47.95238 46.142857,39.809525 157.42857,105.85714 106.7619,131.19048 " style="fill:#cccccc;stroke:rgb(0,255,0);stroke-width:2"/><polygon points="17.190475,96.809525 106.7619,131.19048 85.04762,188.19048 17.190475,187.2857 17.190475,96.809525 " style="fill:#cccccc;stroke:rgb(0,255,0);stroke-width:2"/><polygon points="142.04762,250.61905 76.0,197.2381 16.285713,199.04762 15.380952,265.09525 26.238094,287.7143 45.238094,298.57144 142.04762,250.61905 " style="fill:#cccccc;stroke:rgb(0,255,0);stroke-width:2"/><polygon points="53.38095,314.85715 72.38095,328.42856 96.809525,332.9524 272.33334,329.33334 291.33334,244.2857 242.4762,211.7143 53.38095,314.85715 " style="fill:#cccccc;stroke:rgb(0,255,0);stroke-width:2"/><polygon points="298.57144,252.42857 324.8095,254.2381 332.9524,327.5238 285.0,328.42856 298.57144,252.42857 " style="fill:#cccccc;stroke:rgb(0,255,0);stroke-width:2"/><polygon points="352.85715,325.7143 337.4762,248.80952 376.38095,214.42857 545.5714,303.09525 544.6667,328.42856 527.4762,331.14285 352.85715,325.7143 " style="fill:#cccccc;stroke:rgb(0,255,0);stroke-width:2"/><polygon points="237.95238,126.66667 289.5238,92.28571 276.85715,13.571429 86.85714,14.47619 66.95238,20.809525 56.095238,32.57143 237.95238,126.66667 " style="fill:#cccccc;stroke:rgb(0,255,0);stroke-width:2"/><polygon points="299.4762,89.57143 319.38095,88.666664 334.7619,17.190475 288.61905,16.285713 299.4762,89.57143 " style="fill:#cccccc;stroke:rgb(0,255,0);stroke-width:2"/><polygon points="377.2857,127.57143 325.7143,92.28571 345.61905,16.285713 532.9048,14.47619 559.1428,33.476192 523.8571,54.285713 377.2857,127.57143 " style="fill:#cccccc;stroke:rgb(0,255,0);stroke-width:2"/><polygon points="393.57144,171.90475 522.9524,158.33333 514.8095,72.38095 385.42856,139.33333 393.57144,171.90475 " style="fill:#cccccc;stroke:rgb(0,255,0);stroke-width:2"/><polygon points="522.9524,158.33333 393.57144,171.90475 380.90475,203.57143 468.66666,243.38095 508.4762,210.80952 522.9524,158.33333 " style="fill:#cccccc;stroke:rgb(0,255,0);stroke-width:2"/><polygon points="532.0,191.80952 585.3809,189.09525 586.2857,150.19048 531.0952,152.0 532.0,191.80952 " style="fill:#cccccc;stroke:rgb(0,255,0);stroke-width:2"/><polygon points="523.8571,67.85714 572.7143,39.809525 588.0952,58.809525 590.8095,103.14286 584.4762,141.14285 531.0952,140.2381 523.8571,67.85714 " style="fill:#cccccc;stroke:rgb(0,255,0);stroke-width:2"/><polygon points="528.3809,251.5238 587.1905,257.85715 579.9524,285.90475 560.9524,300.38095 517.5238,273.2381 528.3809,251.5238 " style="fill:#cccccc;stroke:rgb(0,255,0);stroke-width:2"/><polygon points="587.1905,257.85715 528.3809,251.5238 532.0,199.04762 587.1905,197.2381 587.1905,257.85715 " style="fill:#cccccc;stroke:rgb(0,255,0);stroke-width:2"/><polygon points="477.7143,250.61905 507.57144,267.8095 517.5238,247.0 518.4286,217.14285 477.7143,250.61905 " style="fill:#cccccc;stroke:rgb(0,255,0);stroke-width:2"/><polygon points="268.7143,139.33333 284.09525,125.7619 309.42856,120.33333 341.09525,133.90475 359.1905,161.95238 360.09525,188.19048 347.42856,207.19048 321.1905,221.66667 294.0476,222.57143 274.14285,209.90475 257.85715,188.19048 258.7619,157.42857 268.7143,139.33333 " style="fill:#cccccc;stroke:rgb(0,255,0);stroke-width:2"/><polygon points="61.311584,27.681164 65.311584,27.681164 65.311584,31.681164 61.311584,31.681164 " style="fill:#cccccc;stroke:rgb(0,0,255);stroke-width:2"/><polygon points="36.84185,54.297894 40.84185,54.297894 40.84185,58.297894 36.84185,58.297894 " style="fill:#cccccc;stroke:rgb(0,0,255);stroke-width:2"/><polygon points="33.858727,77.11223 37.858727,77.11223 37.858727,81.11223 33.858727,81.11223 " style="fill:#cccccc;stroke:rgb(0,0,255);stroke-width:2"/><polygon points="68.49946,54.297894 72.49946,54.297894 72.49946,58.297894 68.49946,58.297894 " style="fill:#cccccc;stroke:rgb(0,0,255);stroke-width:2"/><polygon points="68.49946,77.11223 72.49946,77.11223 72.49946,81.11223 68.49946,81.11223 " style="fill:#cccccc;stroke:rgb(0,0,255);stroke-width:2"/><polygon points="94.48001,28.632061 98.48001,28.632061 98.48001,32.63206 94.48001,32.63206 " style="fill:#cccccc;stroke:rgb(0,0,255);stroke-width:2"/><polygon points="111.800385,28.590824 115.800385,28.590824 115.800385,32.590824 111.800385,32.590824 " style="fill:#cccccc;stroke:rgb(0,0,255);stroke-width:2"/><polygon points="129.12074,28.549583 133.12074,28.549583 133.12074,32.549583 129.12074,32.549583 " style="fill:#cccccc;stroke:rgb(0,0,255);stroke-width:2"/><polygon points="146.44112,28.508345 150.44112,28.508345 150.44112,32.508347 146.44112,32.508347 " style="fill:#cccccc;stroke:rgb(0,0,255);stroke-width:2"/><polygon points="97.366745,69.39768 101.366745,69.39768 101.366745,73.39768 97.366745,73.39768 " style="fill:#cccccc;stroke:rgb(0,0,255);stroke-width:2"/><polygon points="120.46057,64.90972 124.46057,64.90972 124.46057,68.90972 120.46057,68.90972 " style="fill:#cccccc;stroke:rgb(0,0,255);stroke-width:2"/><polygon points="143.55438,63.85414 147.55438,63.85414 147.55438,67.85414 143.55438,67.85414 " style="fill:#cccccc;stroke:rgb(0,0,255);stroke-width:2"/><polygon points="31.33403,98.86221 35.33403,98.86221 35.33403,102.86221 31.33403,102.86221 " style="fill:#cccccc;stroke:rgb(0,0,255);stroke-width:2"/><polygon points="31.33403,119.547844 35.33403,119.547844 35.33403,123.547844 31.33403,123.547844 " style="fill:#cccccc;stroke:rgb(0,0,255);stroke-width:2"/><polygon points="63.621147,98.86221 67.62115,98.86221 67.62115,102.86221 63.621147,102.86221 " style="fill:#cccccc;stroke:rgb(0,0,255);stroke-width:2"/><polygon points="63.621147,119.547844 67.62115,119.547844 67.62115,123.547844 63.621147,123.547844 " style="fill:#cccccc;stroke:rgb(0,0,255);stroke-width:2"/><polygon points="31.33403,140.23347 35.33403,140.23347 35.33403,144.23347 31.33403,144.23347 " style="fill:#cccccc;stroke:rgb(0,0,255);stroke-width:2"/><polygon points="31.33403,160.9191 35.33403,160.9191 35.33403,164.9191 31.33403,164.9191 " style="fill:#cccccc;stroke:rgb(0,0,255);stroke-width:2"/><polygon points="63.621147,140.23347 67.62115,140.23347 67.62115,144.23347 63.621147,144.23347 " style="fill:#cccccc;stroke:rgb(0,0,255);stroke-width:2"/><polygon points="63.621147,160.9191 67.62115,160.9191 67.62115,164.9191 63.621147,164.9191 " style="fill:#cccccc;stroke:rgb(0,0,255);stroke-width:2"/><polygon points="92.3208,105.0679 96.3208,105.0679 96.3208,109.0679 92.3208,109.0679 " style="fill:#cccccc;stroke:rgb(0,0,255);stroke-width:2"/><polygon points="117.433,105.0679 121.433,105.0679 121.433,109.0679 117.433,109.0679 " style="fill:#cccccc;stroke:rgb(0,0,255);stroke-width:2"/><polygon points="142.5452,102.66789 146.5452,102.66789 146.5452,106.66789 142.5452,106.66789 " style="fill:#cccccc;stroke:rgb(0,0,255);stroke-width:2"/><polygon points="99.83737,134.02779 103.83737,134.02779 103.83737,138.02779 99.83737,138.02779 " style="fill:#cccccc;stroke:rgb(0,0,255);stroke-width:2"/><polygon points="88.977844,158.85054 92.977844,158.85054 92.977844,162.85054 88.977844,162.85054 " style="fill:#cccccc;stroke:rgb(0,0,255);stroke-width:2"/><polygon points="164.22592,29.618347 168.22592,29.618347 168.22592,33.618347 164.22592,33.618347 " style="fill:#cccccc;stroke:rgb(0,0,255);stroke-width:2"/><polygon points="182.47517,29.574898 186.47517,29.574898 186.47517,33.574898 182.47517,33.574898 " style="fill:#cccccc;stroke:rgb(0,0,255);stroke-width:2"/><polygon points="200.72441,29.531448 204.72441,29.531448 204.72441,33.53145 200.72441,33.53145 " style="fill:#cccccc;stroke:rgb(0,0,255);stroke-width:2"/><polygon points="218.97365,29.487997 222.97365,29.487997 222.97365,33.488 218.97365,33.488 " style="fill:#cccccc;stroke:rgb(0,0,255);stroke-width:2"/><polygon points="169.70068,58.240593 173.70068,58.240593 173.70068,62.240593 169.70068,62.240593 " style="fill:#cccccc;stroke:rgb(0,0,255);stroke-width:2"/><polygon points="169.70068,80.35798 173.70068,80.35798 173.70068,84.35798 169.70068,84.35798 " style="fill:#cccccc;stroke:rgb(0,0,255);stroke-width:2"/><polygon points="206.19917,54.554367 210.19917,54.554367 210.19917,58.554367 206.19917,58.554367 " style="fill:#cccccc;stroke:rgb(0,0,255);stroke-width:2"/><polygon points="195.24963,76.67175 199.24963,76.67175 199.24963,80.67175 195.24963,80.67175 " style="fill:#cccccc;stroke:rgb(0,0,255);stroke-width:2"/><polygon points="217.14871,76.67175 221.14871,76.67175 221.14871,80.67175 217.14871,80.67175 " style="fill:#cccccc;stroke:rgb(0,0,255);stroke-width:2"/><polygon points="240.26443,28.734518 244.26443,28.734518 244.26443,32.73452 240.26443,32.73452 " style="fill:#cccccc;stroke:rgb(0,0,255);stroke-width:2"/><polygon points="264.59674,28.681122 268.59674,28.681122 268.59674,32.68112 264.59674,32.68112 " style="fill:#cccccc;stroke:rgb(0,0,255);stroke-width:2"/><polygon points="288.95276,30.038261 292.95276,30.038261 292.95276,34.03826 288.95276,34.03826 " style="fill:#cccccc;stroke:rgb(0,0,255);stroke-width:2"/><polygon points="246.3475,57.19728 250.3475,57.19728 250.3475,61.19728 246.3475,61.19728 " style="fill:#cccccc;stroke:rgb(0,0,255);stroke-width:2"/><polygon points="246.3475,80.01021 250.3475,80.01021 250.3475,84.01021 246.3475,84.01021 " style="fill:#cccccc;stroke:rgb(0,0,255);stroke-width:2"/><polygon points="282.19925,57.19728 286.19925,57.19728 286.19925,61.19728 282.19925,61.19728 " style="fill:#cccccc;stroke:rgb(0,0,255);stroke-width:2"/><polygon points="282.84598,80.01021 286.84598,80.01021 286.84598,84.01021 282.84598,84.01021 " style="fill:#cccccc;stroke:rgb(0,0,255);stroke-width:2"/><polygon points="191.5998,101.71807 195.5998,101.71807 195.5998,105.71807 191.5998,105.71807 " style="fill:#cccccc;stroke:rgb(0,0,255);stroke-width:2"/><polygon points="237.22289,107.38571 241.22289,107.38571 241.22289,111.38571 237.22289,111.38571 " style="fill:#cccccc;stroke:rgb(0,0,255);stroke-width:2"/><polygon points="255.4721,104.57663 259.4721,104.57663 259.4721,108.57663 255.4721,108.57663 " style="fill:#cccccc;stroke:rgb(0,0,255);stroke-width:2"/><polygon points="283.35736,131.33928 287.35736,131.33928 287.35736,135.33928 283.35736,135.33928 " style="fill:#cccccc;stroke:rgb(0,0,255);stroke-width:2"/><polygon points="267.49597,155.29286 271.49597,155.29286 271.49597,159.29286 267.49597,159.29286 " style="fill:#cccccc;stroke:rgb(0,0,255);stroke-width:2"/><polygon points="289.89548,155.29286 293.89548,155.29286 293.89548,159.29286 289.89548,159.29286 " style="fill:#cccccc;stroke:rgb(0,0,255);stroke-width:2"/><polygon points="29.826736,185.48087 33.826736,185.48087 33.826736,189.48087 29.826736,189.48087 " style="fill:#cccccc;stroke:rgb(0,0,255);stroke-width:2"/><polygon points="61.139847,185.89838 65.13985,185.89838 65.13985,189.89838 61.139847,189.89838 " style="fill:#cccccc;stroke:rgb(0,0,255);stroke-width:2"/><polygon points="26.351671,216.88777 30.351671,216.88777 30.351671,220.88777 26.351671,220.88777 " style="fill:#cccccc;stroke:rgb(0,0,255);stroke-width:2"/><polygon points="26.19542,239.7007 30.19542,239.7007 30.19542,243.7007 26.19542,243.7007 " style="fill:#cccccc;stroke:rgb(0,0,255);stroke-width:2"/><polygon points="57.821033,213.08562 61.821033,213.08562 61.821033,217.08562 57.821033,217.08562 " style="fill:#cccccc;stroke:rgb(0,0,255);stroke-width:2"/><polygon points="48.33335,235.89854 52.33335,235.89854 52.33335,239.89854 48.33335,239.89854 " style="fill:#cccccc;stroke:rgb(0,0,255);stroke-width:2"/><polygon points="67.308716,235.89854 71.308716,235.89854 71.308716,239.89854 67.308716,239.89854 " style="fill:#cccccc;stroke:rgb(0,0,255);stroke-width:2"/><polygon points="87.33827,211.18454 91.33827,211.18454 91.33827,215.18454 87.33827,215.18454 " style="fill:#cccccc;stroke:rgb(0,0,255);stroke-width:2"/><polygon points="87.33827,237.79962 91.33827,237.79962 91.33827,241.79962 87.33827,241.79962 " style="fill:#cccccc;stroke:rgb(0,0,255);stroke-width:2"/><polygon points="118.96388,232.82281 122.96388,232.82281 122.96388,236.82281 118.96388,236.82281 " style="fill:#cccccc;stroke:rgb(0,0,255);stroke-width:2"/><polygon points="25.102644,266.66516 29.102644,266.66516 29.102644,270.66516 25.102644,270.66516 " style="fill:#cccccc;stroke:rgb(0,0,255);stroke-width:2"/><polygon points="48.54603,266.66516 52.54603,266.66516 52.54603,270.66516 48.54603,270.66516 " style="fill:#cccccc;stroke:rgb(0,0,255);stroke-width:2"/><polygon points="71.98942,266.66516 75.98942,266.66516 75.98942,270.66516 71.98942,270.66516 " style="fill:#cccccc;stroke:rgb(0,0,255);stroke-width:2"/><polygon points="37.849533,293.49225 41.849533,293.49225 41.849533,297.49225 37.849533,297.49225 " style="fill:#cccccc;stroke:rgb(0,0,255);stroke-width:2"/><polygon points="68.42392,305.56012 72.42392,305.56012 72.42392,309.56012 68.42392,309.56012 " style="fill:#cccccc;stroke:rgb(0,0,255);stroke-width:2"/><polygon points="101.293655,267.81494 105.293655,267.81494 105.293655,271.81494 101.293655,271.81494 " style="fill:#cccccc;stroke:rgb(0,0,255);stroke-width:2"/><polygon points="136.45872,268.21686 140.45872,268.21686 140.45872,272.21686 136.45872,272.21686 " style="fill:#cccccc;stroke:rgb(0,0,255);stroke-width:2"/><polygon points="97.77714,296.73303 101.77714,296.73303 101.77714,300.73303 97.77714,300.73303 " style="fill:#cccccc;stroke:rgb(0,0,255);stroke-width:2"/><polygon points="97.77714,319.54593 101.77714,319.54593 101.77714,323.54593 97.77714,323.54593 " style="fill:#cccccc;stroke:rgb(0,0,255);stroke-width:2"/><polygon points="132.94221,292.8723 136.94221,292.8723 136.94221,296.8723 132.94221,296.8723 " style="fill:#cccccc;stroke:rgb(0,0,255);stroke-width:2"/><polygon points="122.392685,315.50964 126.392685,315.50964 126.392685,319.50964 122.392685,319.50964 " style="fill:#cccccc;stroke:rgb(0,0,255);stroke-width:2"/><polygon points="143.49173,315.2921 147.49173,315.2921 147.49173,319.2921 143.49173,319.2921 " style="fill:#cccccc;stroke:rgb(0,0,255);stroke-width:2"/><polygon points="188.1584,238.25128 192.1584,238.25128 192.1584,242.25128 188.1584,242.25128 " style="fill:#cccccc;stroke:rgb(0,0,255);stroke-width:2"/><polygon points="220.42606,229.451 224.42606,229.451 224.42606,233.451 220.42606,233.451 " style="fill:#cccccc;stroke:rgb(0,0,255);stroke-width:2"/><polygon points="267.1667,190.20932 271.1667,190.20932 271.1667,194.20932 267.1667,194.20932 " style="fill:#cccccc;stroke:rgb(0,0,255);stroke-width:2"/><polygon points="289.7857,190.20932 293.7857,190.20932 293.7857,194.20932 289.7857,194.20932 " style="fill:#cccccc;stroke:rgb(0,0,255);stroke-width:2"/><polygon points="252.69373,228.38292 256.69373,228.38292 256.69373,232.38292 252.69373,232.38292 " style="fill:#cccccc;stroke:rgb(0,0,255);stroke-width:2"/><polygon points="292.0476,220.57143 296.0476,220.57143 296.0476,224.57143 292.0476,224.57143 " style="fill:#cccccc;stroke:rgb(0,0,255);stroke-width:2"/><polygon points="171.34172,256.23816 175.34172,256.23816 175.34172,260.23816 171.34172,260.23816 " style="fill:#cccccc;stroke:rgb(0,0,255);stroke-width:2"/><polygon points="171.34172,274.6114 175.34172,274.6114 175.34172,278.6114 171.34172,278.6114 " style="fill:#cccccc;stroke:rgb(0,0,255);stroke-width:2"/><polygon points="205.94266,256.23816 209.94266,256.23816 209.94266,260.23816 205.94266,260.23816 " style="fill:#cccccc;stroke:rgb(0,0,255);stroke-width:2"/><polygon points="205.94266,274.6114 209.94266,274.6114 209.94266,278.6114 205.94266,278.6114 " style="fill:#cccccc;stroke:rgb(0,0,255);stroke-width:2"/><polygon points="167.88162,295.28128 171.88162,295.28128 171.88162,299.28128 167.88162,299.28128 " style="fill:#cccccc;stroke:rgb(0,0,255);stroke-width:2"/><polygon points="167.88162,318.24783 171.88162,318.24783 171.88162,322.24783 167.88162,322.24783 " style="fill:#cccccc;stroke:rgb(0,0,255);stroke-width:2"/><polygon points="202.48256,291.3584 206.48256,291.3584 206.48256,295.3584 202.48256,295.3584 " style="fill:#cccccc;stroke:rgb(0,0,255);stroke-width:2"/><polygon points="192.10228,314.03958 196.10228,314.03958 196.10228,318.03958 192.10228,318.03958 " style="fill:#cccccc;stroke:rgb(0,0,255);stroke-width:2"/><polygon points="212.86284,313.82556 216.86284,313.82556 216.86284,317.82556 212.86284,317.82556 " style="fill:#cccccc;stroke:rgb(0,0,255);stroke-width:2"/><polygon points="242.70615,257.20813 246.70615,257.20813 246.70615,261.20813 242.70615,261.20813 " style="fill:#cccccc;stroke:rgb(0,0,255);stroke-width:2"/><polygon points="242.70615,277.52133 246.70615,277.52133 246.70615,281.52133 242.70615,281.52133 " style="fill:#cccccc;stroke:rgb(0,0,255);stroke-width:2"/><polygon points="281.6322,257.20813 285.6322,257.20813 285.6322,261.20813 281.6322,261.20813 " style="fill:#cccccc;stroke:rgb(0,0,255);stroke-width:2"/><polygon points="281.46155,277.52133 285.46155,277.52133 285.46155,281.52133 281.46155,281.52133 " style="fill:#cccccc;stroke:rgb(0,0,255);stroke-width:2"/><polygon points="242.70615,297.8345 246.70615,297.8345 246.70615,301.8345 242.70615,301.8345 " style="fill:#cccccc;stroke:rgb(0,0,255);stroke-width:2"/><polygon points="242.70615,318.14767 246.70615,318.14767 246.70615,322.14767 242.70615,322.14767 " style="fill:#cccccc;stroke:rgb(0,0,255);stroke-width:2"/><polygon points="276.96832,297.63385 280.96832,297.63385 280.96832,301.63385 276.96832,301.63385 " style="fill:#cccccc;stroke:rgb(0,0,255);stroke-width:2"/><polygon points="284.5862,317.54572 288.5862,317.54572 288.5862,321.54572 284.5862,321.54572 " style="fill:#cccccc;stroke:rgb(0,0,255);stroke-width:2"/><polygon points="312.3781,31.023651 316.3781,31.023651 316.3781,35.02365 312.3781,35.02365 " style="fill:#cccccc;stroke:rgb(0,0,255);stroke-width:2"/><polygon points="339.2758,30.869133 343.2758,30.869133 343.2758,34.869133 339.2758,34.869133 " style="fill:#cccccc;stroke:rgb(0,0,255);stroke-width:2"/><polygon points="357.50977,30.760117 361.50977,30.760117 361.50977,34.760117 357.50977,34.760117 " style="fill:#cccccc;stroke:rgb(0,0,255);stroke-width:2"/><polygon points="318.0196,58.62283 322.0196,58.62283 322.0196,62.62283 318.0196,62.62283 " style="fill:#cccccc;stroke:rgb(0,0,255);stroke-width:2"/><polygon points="318.0196,80.913 322.0196,80.913 322.0196,84.913 318.0196,84.913 " style="fill:#cccccc;stroke:rgb(0,0,255);stroke-width:2"/><polygon points="351.86835,58.62283 355.86835,58.62283 355.86835,62.62283 351.86835,62.62283 " style="fill:#cccccc;stroke:rgb(0,0,255);stroke-width:2"/><polygon points="351.86835,80.913 355.86835,80.913 355.86835,84.913 351.86835,84.913 " style="fill:#cccccc;stroke:rgb(0,0,255);stroke-width:2"/><polygon points="384.0246,23.481709 388.0246,23.481709 388.0246,27.481709 384.0246,27.481709 " style="fill:#cccccc;stroke:rgb(0,0,255);stroke-width:2"/><polygon points="384.0246,42.94882 388.0246,42.94882 388.0246,46.94882 384.0246,46.94882 " style="fill:#cccccc;stroke:rgb(0,0,255);stroke-width:2"/><polygon points="406.8725,33.141678 410.8725,33.141678 410.8725,37.141678 406.8725,37.141678 " style="fill:#cccccc;stroke:rgb(0,0,255);stroke-width:2"/><polygon points="429.72043,23.15058 433.72043,23.15058 433.72043,27.15058 429.72043,27.15058 " style="fill:#cccccc;stroke:rgb(0,0,255);stroke-width:2"/><polygon points="429.72043,42.83844 433.72043,42.83844 433.72043,46.83844 429.72043,46.83844 " style="fill:#cccccc;stroke:rgb(0,0,255);stroke-width:2"/><polygon points="384.0246,62.526306 388.0246,62.526306 388.0246,66.526306 384.0246,66.526306 " style="fill:#cccccc;stroke:rgb(0,0,255);stroke-width:2"/><polygon points="384.0246,82.21416 388.0246,82.21416 388.0246,86.21416 384.0246,86.21416 " style="fill:#cccccc;stroke:rgb(0,0,255);stroke-width:2"/><polygon points="406.8725,72.37023 410.8725,72.37023 410.8725,76.37023 406.8725,76.37023 " style="fill:#cccccc;stroke:rgb(0,0,255);stroke-width:2"/><polygon points="429.72043,62.526306 433.72043,62.526306 433.72043,66.526306 429.72043,66.526306 " style="fill:#cccccc;stroke:rgb(0,0,255);stroke-width:2"/><polygon points="429.72043,82.21416 433.72043,82.21416 433.72043,86.21416 429.72043,86.21416 " style="fill:#cccccc;stroke:rgb(0,0,255);stroke-width:2"/><polygon points="333.79004,97.17965 337.79004,97.17965 337.79004,101.17965 333.79004,101.17965 " style="fill:#cccccc;stroke:rgb(0,0,255);stroke-width:2"/><polygon points="310.50684,151.12167 314.50684,151.12167 314.50684,155.12167 310.50684,155.12167 " style="fill:#cccccc;stroke:rgb(0,0,255);stroke-width:2"/><polygon points="335.70584,141.27774 339.70584,141.27774 339.70584,145.27774 335.70584,145.27774 " style="fill:#cccccc;stroke:rgb(0,0,255);stroke-width:2"/><polygon points="338.74164,160.9656 342.74164,160.9656 342.74164,164.9656 338.74164,164.9656 " style="fill:#cccccc;stroke:rgb(0,0,255);stroke-width:2"/><polygon points="379.56274,108.81476 383.56274,108.81476 383.56274,112.81476 379.56274,112.81476 " style="fill:#cccccc;stroke:rgb(0,0,255);stroke-width:2"/><polygon points="405.71857,108.933395 409.71857,108.933395 409.71857,112.933395 405.71857,112.933395 " style="fill:#cccccc;stroke:rgb(0,0,255);stroke-width:2"/><polygon points="431.87445,112.26342 435.87445,112.26342 435.87445,116.26342 431.87445,116.26342 " style="fill:#cccccc;stroke:rgb(0,0,255);stroke-width:2"/><polygon points="398.8095,137.05891 402.8095,137.05891 402.8095,141.05891 398.8095,141.05891 " style="fill:#cccccc;stroke:rgb(0,0,255);stroke-width:2"/><polygon points="400.1815,159.55933 404.1815,159.55933 404.1815,163.55933 400.1815,163.55933 " style="fill:#cccccc;stroke:rgb(0,0,255);stroke-width:2"/><polygon points="429.5714,137.05891 433.5714,137.05891 433.5714,141.05891 429.5714,141.05891 " style="fill:#cccccc;stroke:rgb(0,0,255);stroke-width:2"/><polygon points="429.5714,159.55933 433.5714,159.55933 433.5714,163.55933 429.5714,163.55933 " style="fill:#cccccc;stroke:rgb(0,0,255);stroke-width:2"/><polygon points="455.97357,29.80395 459.97357,29.80395 459.97357,33.803947 455.97357,33.803947 " style="fill:#cccccc;stroke:rgb(0,0,255);stroke-width:2"/><polygon points="478.01593,29.697464 482.01593,29.697464 482.01593,33.697464 478.01593,33.697464 " style="fill:#cccccc;stroke:rgb(0,0,255);stroke-width:2"/><polygon points="500.05835,29.59098 504.05835,29.59098 504.05835,33.59098 500.05835,33.59098 " style="fill:#cccccc;stroke:rgb(0,0,255);stroke-width:2"/><polygon points="461.48413,57.796383 465.48413,57.796383 465.48413,61.796383 461.48413,61.796383 " style="fill:#cccccc;stroke:rgb(0,0,255);stroke-width:2"/><polygon points="461.48413,80.3607 465.48413,80.3607 465.48413,84.3607 461.48413,84.3607 " style="fill:#cccccc;stroke:rgb(0,0,255);stroke-width:2"/><polygon points="494.54773,57.796383 498.54773,57.796383 498.54773,61.796383 494.54773,61.796383 " style="fill:#cccccc;stroke:rgb(0,0,255);stroke-width:2"/><polygon points="494.54773,80.3607 498.54773,80.3607 498.54773,84.3607 494.54773,84.3607 " style="fill:#cccccc;stroke:rgb(0,0,255);stroke-width:2"/><polygon points="528.8722,22.372023 532.8722,22.372023 532.8722,26.372023 528.8722,26.372023 " style="fill:#cccccc;stroke:rgb(0,0,255);stroke-width:2"/><polygon points="528.8722,42.16369 532.8722,42.16369 532.8722,46.16369 528.8722,46.16369 " style="fill:#cccccc;stroke:rgb(0,0,255);stroke-width:2"/><polygon points="530.3666,61.95536 534.3666,61.95536 534.3666,65.95536 530.3666,65.95536 " style="fill:#cccccc;stroke:rgb(0,0,255);stroke-width:2"/><polygon points="530.3666,81.74703 534.3666,81.74703 534.3666,85.74703 530.3666,85.74703 " style="fill:#cccccc;stroke:rgb(0,0,255);stroke-width:2"/><polygon points="568.33496,61.95536 572.33496,61.95536 572.33496,65.95536 568.33496,65.95536 " style="fill:#cccccc;stroke:rgb(0,0,255);stroke-width:2"/><polygon points="568.9408,81.74703 572.9408,81.74703 572.9408,85.74703 568.9408,85.74703 " style="fill:#cccccc;stroke:rgb(0,0,255);stroke-width:2"/><polygon points="461.73572,101.5387 465.73572,101.5387 465.73572,105.5387 461.73572,105.5387 " style="fill:#cccccc;stroke:rgb(0,0,255);stroke-width:2"/><polygon points="461.73572,121.33037 465.73572,121.33037 465.73572,125.33037 461.73572,125.33037 " style="fill:#cccccc;stroke:rgb(0,0,255);stroke-width:2"/><polygon points="495.30237,101.5387 499.30237,101.5387 499.30237,105.5387 495.30237,105.5387 " style="fill:#cccccc;stroke:rgb(0,0,255);stroke-width:2"/><polygon points="495.30237,121.33037 499.30237,121.33037 499.30237,125.33037 495.30237,125.33037 " style="fill:#cccccc;stroke:rgb(0,0,255);stroke-width:2"/><polygon points="461.73572,141.12204 465.73572,141.12204 465.73572,145.12204 461.73572,145.12204 " style="fill:#cccccc;stroke:rgb(0,0,255);stroke-width:2"/><polygon points="461.73572,160.9137 465.73572,160.9137 465.73572,164.9137 461.73572,164.9137 " style="fill:#cccccc;stroke:rgb(0,0,255);stroke-width:2"/><polygon points="495.30237,141.12204 499.30237,141.12204 499.30237,145.12204 495.30237,145.12204 " style="fill:#cccccc;stroke:rgb(0,0,255);stroke-width:2"/><polygon points="495.30237,160.9137 499.30237,160.9137 499.30237,164.9137 495.30237,164.9137 " style="fill:#cccccc;stroke:rgb(0,0,255);stroke-width:2"/><polygon points="526.1321,108.60715 530.1321,108.60715 530.1321,112.60715 526.1321,112.60715 " style="fill:#cccccc;stroke:rgb(0,0,255);stroke-width:2"/><polygon points="550.44763,108.60715 554.44763,108.60715 554.44763,112.60715 550.44763,112.60715 " style="fill:#cccccc;stroke:rgb(0,0,255);stroke-width:2"/><polygon points="576.0222,108.60715 580.0222,108.60715 580.0222,112.60715 576.0222,112.60715 " style="fill:#cccccc;stroke:rgb(0,0,255);stroke-width:2"/><polygon points="530.2488,136.88097 534.2488,136.88097 534.2488,140.88097 530.2488,140.88097 " style="fill:#cccccc;stroke:rgb(0,0,255);stroke-width:2"/><polygon points="530.2488,159.50002 534.2488,159.50002 534.2488,163.50002 530.2488,163.50002 " style="fill:#cccccc;stroke:rgb(0,0,255);stroke-width:2"/><polygon points="566.57495,136.88097 570.57495,136.88097 570.57495,140.88097 566.57495,140.88097 " style="fill:#cccccc;stroke:rgb(0,0,255);stroke-width:2"/><polygon points="566.34875,159.50002 570.34875,159.50002 570.34875,163.50002 566.34875,163.50002 " style="fill:#cccccc;stroke:rgb(0,0,255);stroke-width:2"/><polygon points="310.5952,190.28125 314.5952,190.28125 314.5952,194.28125 310.5952,194.28125 " style="fill:#cccccc;stroke:rgb(0,0,255);stroke-width:2"/><polygon points="339.0952,180.5454 343.0952,180.5454 343.0952,184.5454 339.0952,184.5454 " style="fill:#cccccc;stroke:rgb(0,0,255);stroke-width:2"/><polygon points="337.73163,200.0171 341.73163,200.0171 341.73163,204.0171 337.73163,204.0171 " style="fill:#cccccc;stroke:rgb(0,0,255);stroke-width:2"/><polygon points="319.1905,219.66667 323.1905,219.66667 323.1905,223.66667 319.1905,223.66667 " style="fill:#cccccc;stroke:rgb(0,0,255);stroke-width:2"/><polygon points="389.6111,187.49957 393.6111,187.49957 393.6111,191.49957 389.6111,191.49957 " style="fill:#cccccc;stroke:rgb(0,0,255);stroke-width:2"/><polygon points="411.0238,187.49957 415.0238,187.49957 415.0238,191.49957 411.0238,191.49957 " style="fill:#cccccc;stroke:rgb(0,0,255);stroke-width:2"/><polygon points="432.43652,187.49957 436.43652,187.49957 436.43652,191.49957 432.43652,191.49957 " style="fill:#cccccc;stroke:rgb(0,0,255);stroke-width:2"/><polygon points="385.03247,218.01065 389.03247,218.01065 389.03247,222.01065 385.03247,222.01065 " style="fill:#cccccc;stroke:rgb(0,0,255);stroke-width:2"/><polygon points="385.03247,237.5697 389.03247,237.5697 389.03247,241.5697 385.03247,241.5697 " style="fill:#cccccc;stroke:rgb(0,0,255);stroke-width:2"/><polygon points="423.77274,215.31631 427.77274,215.31631 427.77274,219.31631 423.77274,219.31631 " style="fill:#cccccc;stroke:rgb(0,0,255);stroke-width:2"/><polygon points="423.77274,238.31305 427.77274,238.31305 427.77274,242.31305 423.77274,242.31305 " style="fill:#cccccc;stroke:rgb(0,0,255);stroke-width:2"/><polygon points="312.14337,269.06616 316.14337,269.06616 316.14337,273.06616 312.14337,273.06616 " style="fill:#cccccc;stroke:rgb(0,0,255);stroke-width:2"/><polygon points="356.336,258.37024 360.336,258.37024 360.336,262.37024 356.336,262.37024 " style="fill:#cccccc;stroke:rgb(0,0,255);stroke-width:2"/><polygon points="356.336,277.7179 360.336,277.7179 360.336,281.7179 356.336,281.7179 " style="fill:#cccccc;stroke:rgb(0,0,255);stroke-width:2"/><polygon points="312.14337,306.73944 316.14337,306.73944 316.14337,310.73944 312.14337,310.73944 " style="fill:#cccccc;stroke:rgb(0,0,255);stroke-width:2"/><polygon points="356.336,296.60083 360.336,296.60083 360.336,300.60083 356.336,300.60083 " style="fill:#cccccc;stroke:rgb(0,0,255);stroke-width:2"/><polygon points="357.3302,315.019 361.3302,315.019 361.3302,319.019 357.3302,319.019 " style="fill:#cccccc;stroke:rgb(0,0,255);stroke-width:2"/><polygon points="376.85394,266.00458 380.85394,266.00458 380.85394,270.00458 376.85394,270.00458 " style="fill:#cccccc;stroke:rgb(0,0,255);stroke-width:2"/><polygon points="395.79364,266.00458 399.79364,266.00458 399.79364,270.00458 395.79364,270.00458 " style="fill:#cccccc;stroke:rgb(0,0,255);stroke-width:2"/><polygon points="414.73334,266.00458 418.73334,266.00458 418.73334,270.00458 414.73334,270.00458 " style="fill:#cccccc;stroke:rgb(0,0,255);stroke-width:2"/><polygon points="433.67303,266.00458 437.67303,266.00458 437.67303,270.00458 433.67303,270.00458 " style="fill:#cccccc;stroke:rgb(0,0,255);stroke-width:2"/><polygon points="382.5359,293.7771 386.5359,293.7771 386.5359,297.7771 382.5359,297.7771 " style="fill:#cccccc;stroke:rgb(0,0,255);stroke-width:2"/><polygon points="382.5359,314.7058 386.5359,314.7058 386.5359,318.7058 382.5359,318.7058 " style="fill:#cccccc;stroke:rgb(0,0,255);stroke-width:2"/><polygon points="405.2635,304.477 409.2635,304.477 409.2635,308.477 405.2635,308.477 " style="fill:#cccccc;stroke:rgb(0,0,255);stroke-width:2"/><polygon points="427.99112,294.1304 431.99112,294.1304 431.99112,298.1304 427.99112,298.1304 " style="fill:#cccccc;stroke:rgb(0,0,255);stroke-width:2"/><polygon points="427.99112,315.76566 431.99112,315.76566 431.99112,319.76566 427.99112,319.76566 " style="fill:#cccccc;stroke:rgb(0,0,255);stroke-width:2"/><polygon points="452.02087,187.77383 456.02087,187.77383 456.02087,191.77383 452.02087,191.77383 " style="fill:#cccccc;stroke:rgb(0,0,255);stroke-width:2"/><polygon points="469.7768,187.77383 473.7768,187.77383 473.7768,191.77383 469.7768,191.77383 " style="fill:#cccccc;stroke:rgb(0,0,255);stroke-width:2"/><polygon points="487.53278,187.77383 491.53278,187.77383 491.53278,191.77383 487.53278,191.77383 " style="fill:#cccccc;stroke:rgb(0,0,255);stroke-width:2"/><polygon points="505.2887,187.77383 509.2887,187.77383 509.2887,191.77383 505.2887,191.77383 " style="fill:#cccccc;stroke:rgb(0,0,255);stroke-width:2"/><polygon points="454.98016,227.35715 458.98016,227.35715 458.98016,231.35715 454.98016,231.35715 " style="fill:#cccccc;stroke:rgb(0,0,255);stroke-width:2"/><polygon points="478.6548,227.35715 482.6548,227.35715 482.6548,231.35715 478.6548,231.35715 " style="fill:#cccccc;stroke:rgb(0,0,255);stroke-width:2"/><polygon points="502.32938,227.35715 506.32938,227.35715 506.32938,231.35715 502.32938,231.35715 " style="fill:#cccccc;stroke:rgb(0,0,255);stroke-width:2"/><polygon points="531.9226,187.77383 535.9226,187.77383 535.9226,191.77383 531.9226,191.77383 " style="fill:#cccccc;stroke:rgb(0,0,255);stroke-width:2"/><polygon points="567.4346,187.77383 571.4346,187.77383 571.4346,191.77383 567.4346,191.77383 " style="fill:#cccccc;stroke:rgb(0,0,255);stroke-width:2"/><polygon points="528.37146,227.35715 532.37146,227.35715 532.37146,231.35715 528.37146,231.35715 " style="fill:#cccccc;stroke:rgb(0,0,255);stroke-width:2"/><polygon points="553.22974,216.04764 557.22974,216.04764 557.22974,220.04764 553.22974,220.04764 " style="fill:#cccccc;stroke:rgb(0,0,255);stroke-width:2"/><polygon points="574.53687,216.04764 578.53687,216.04764 578.53687,220.04764 574.53687,220.04764 " style="fill:#cccccc;stroke:rgb(0,0,255);stroke-width:2"/><polygon points="553.22974,238.66666 557.22974,238.66666 557.22974,242.66666 553.22974,242.66666 " style="fill:#cccccc;stroke:rgb(0,0,255);stroke-width:2"/><polygon points="574.53687,238.66666 578.53687,238.66666 578.53687,242.66666 574.53687,242.66666 " style="fill:#cccccc;stroke:rgb(0,0,255);stroke-width:2"/><polygon points="460.64313,266.86514 464.64313,266.86514 464.64313,270.86514 460.64313,270.86514 " style="fill:#cccccc;stroke:rgb(0,0,255);stroke-width:2"/><polygon points="495.64368,260.09354 499.64368,260.09354 499.64368,264.09354 495.64368,264.09354 " style="fill:#cccccc;stroke:rgb(0,0,255);stroke-width:2"/><polygon points="457.34766,294.6822 461.34766,294.6822 461.34766,298.6822 457.34766,298.6822 " style="fill:#cccccc;stroke:rgb(0,0,255);stroke-width:2"/><polygon points="457.34766,316.5384 461.34766,316.5384 461.34766,320.5384 457.34766,320.5384 " style="fill:#cccccc;stroke:rgb(0,0,255);stroke-width:2"/><polygon points="492.85956,291.26028 496.85956,291.26028 496.85956,295.26028 492.85956,295.26028 " style="fill:#cccccc;stroke:rgb(0,0,255);stroke-width:2"/><polygon points="482.206,313.44766 486.206,313.44766 486.206,317.44766 482.206,317.44766 " style="fill:#cccccc;stroke:rgb(0,0,255);stroke-width:2"/><polygon points="503.51312,313.77887 507.51312,313.77887 507.51312,317.77887 503.51312,317.77887 " style="fill:#cccccc;stroke:rgb(0,0,255);stroke-width:2"/><polygon points="527.1349,265.8095 531.1349,265.8095 531.1349,269.8095 527.1349,269.8095 " style="fill:#cccccc;stroke:rgb(0,0,255);stroke-width:2"/><polygon points="550.3572,265.8095 554.3572,265.8095 554.3572,269.8095 550.3572,269.8095 " style="fill:#cccccc;stroke:rgb(0,0,255);stroke-width:2"/><polygon points="573.57935,265.8095 577.57935,265.8095 577.57935,269.8095 573.57935,269.8095 " style="fill:#cccccc;stroke:rgb(0,0,255);stroke-width:2"/><polygon points="530.25903,294.1187 534.25903,294.1187 534.25903,298.1187 530.25903,298.1187 " style="fill:#cccccc;stroke:rgb(0,0,255);stroke-width:2"/><polygon points="528.7923,317.26785 532.7923,317.26785 532.7923,321.26785 528.7923,321.26785 " style="fill:#cccccc;stroke:rgb(0,0,255);stroke-width:2"/><polygon points="63.311584,29.681164 70.49946,56.297894 " style="fill:#cccccc;stroke:rgb(255,0,0);stroke-width:2"/><polygon points="63.311584,29.681164 96.48001,30.632061 " style="fill:#cccccc;stroke:rgb(255,0,0);stroke-width:2"/><polygon points="38.84185,56.297894 63.311584,29.681164 " style="fill:#cccccc;stroke:rgb(255,0,0);stroke-width:2"/><polygon points="63.311584,29.681164 70.49946,79.11223 " style="fill:#cccccc;stroke:rgb(255,0,0);stroke-width:2"/><polygon points="35.858727,79.11223 38.84185,56.297894 " style="fill:#cccccc;stroke:rgb(255,0,0);stroke-width:2"/><polygon points="38.84185,56.297894 70.49946,56.297894 " style="fill:#cccccc;stroke:rgb(255,0,0);stroke-width:2"/><polygon points="38.84185,56.297894 70.49946,79.11223 " style="fill:#cccccc;stroke:rgb(255,0,0);stroke-width:2"/><polygon points="33.33403,100.86221 35.858727,79.11223 " style="fill:#cccccc;stroke:rgb(255,0,0);stroke-width:2"/><polygon points="35.858727,79.11223 70.49946,79.11223 " style="fill:#cccccc;stroke:rgb(255,0,0);stroke-width:2"/><polygon points="35.858727,79.11223 65.62115,100.86221 " style="fill:#cccccc;stroke:rgb(255,0,0);stroke-width:2"/><polygon points="70.49946,56.297894 70.49946,79.11223 " style="fill:#cccccc;stroke:rgb(255,0,0);stroke-width:2"/><polygon points="70.49946,56.297894 99.366745,71.39768 " style="fill:#cccccc;stroke:rgb(255,0,0);stroke-width:2"/><polygon points="65.62115,100.86221 70.49946,79.11223 " style="fill:#cccccc;stroke:rgb(255,0,0);stroke-width:2"/><polygon points="70.49946,79.11223 99.366745,71.39768 " style="fill:#cccccc;stroke:rgb(255,0,0);stroke-width:2"/><polygon points="96.48001,30.632061 113.800385,30.590824 " style="fill:#cccccc;stroke:rgb(255,0,0);stroke-width:2"/><polygon points="96.48001,30.632061 131.12074,30.549583 " style="fill:#cccccc;stroke:rgb(255,0,0);stroke-width:2"/><polygon points="70.49946,56.297894 96.48001,30.632061 " style="fill:#cccccc;stroke:rgb(255,0,0);stroke-width:2"/><polygon points="113.800385,30.590824 131.12074,30.549583 " style="fill:#cccccc;stroke:rgb(255,0,0);stroke-width:2"/><polygon points="113.800385,30.590824 148.44112,30.508345 " style="fill:#cccccc;stroke:rgb(255,0,0);stroke-width:2"/><polygon points="113.800385,30.590824 122.46057,66.90972 " style="fill:#cccccc;stroke:rgb(255,0,0);stroke-width:2"/><polygon points="131.12074,30.549583 148.44112,30.508345 " style="fill:#cccccc;stroke:rgb(255,0,0);stroke-width:2"/><polygon points="131.12074,30.549583 166.22592,31.618347 " style="fill:#cccccc;stroke:rgb(255,0,0);stroke-width:2"/><polygon points="148.44112,30.508345 166.22592,31.618347 " style="fill:#cccccc;stroke:rgb(255,0,0);stroke-width:2"/><polygon points="145.55438,65.85414 148.44112,30.508345 " style="fill:#cccccc;stroke:rgb(255,0,0);stroke-width:2"/><polygon points="99.366745,71.39768 122.46057,66.90972 " style="fill:#cccccc;stroke:rgb(255,0,0);stroke-width:2"/><polygon points="94.3208,107.0679 99.366745,71.39768 " style="fill:#cccccc;stroke:rgb(255,0,0);stroke-width:2"/><polygon points="122.46057,66.90972 145.55438,65.85414 " style="fill:#cccccc;stroke:rgb(255,0,0);stroke-width:2"/><polygon points="122.46057,66.90972 131.12074,30.549583 " style="fill:#cccccc;stroke:rgb(255,0,0);stroke-width:2"/><polygon points="145.55438,65.85414 171.70068,60.240593 " style="fill:#cccccc;stroke:rgb(255,0,0);stroke-width:2"/><polygon points="145.55438,65.85414 171.70068,82.35798 " style="fill:#cccccc;stroke:rgb(255,0,0);stroke-width:2"/><polygon points="33.33403,100.86221 33.33403,121.547844 " style="fill:#cccccc;stroke:rgb(255,0,0);stroke-width:2"/><polygon points="33.33403,100.86221 65.62115,100.86221 " style="fill:#cccccc;stroke:rgb(255,0,0);stroke-width:2"/><polygon points="33.33403,100.86221 65.62115,121.547844 " style="fill:#cccccc;stroke:rgb(255,0,0);stroke-width:2"/><polygon points="33.33403,121.547844 33.33403,142.23347 " style="fill:#cccccc;stroke:rgb(255,0,0);stroke-width:2"/><polygon points="33.33403,121.547844 65.62115,121.547844 " style="fill:#cccccc;stroke:rgb(255,0,0);stroke-width:2"/><polygon points="33.33403,121.547844 65.62115,100.86221 " style="fill:#cccccc;stroke:rgb(255,0,0);stroke-width:2"/><polygon points="65.62115,100.86221 65.62115,121.547844 " style="fill:#cccccc;stroke:rgb(255,0,0);stroke-width:2"/><polygon points="65.62115,100.86221 94.3208,107.0679 " style="fill:#cccccc;stroke:rgb(255,0,0);stroke-width:2"/><polygon points="65.62115,121.547844 65.62115,142.23347 " style="fill:#cccccc;stroke:rgb(255,0,0);stroke-width:2"/><polygon points="65.62115,121.547844 94.3208,107.0679 " style="fill:#cccccc;stroke:rgb(255,0,0);stroke-width:2"/><polygon points="33.33403,142.23347 33.33403,162.9191 " style="fill:#cccccc;stroke:rgb(255,0,0);stroke-width:2"/><polygon points="33.33403,142.23347 65.62115,142.23347 " style="fill:#cccccc;stroke:rgb(255,0,0);stroke-width:2"/><polygon points="33.33403,142.23347 65.62115,162.9191 " style="fill:#cccccc;stroke:rgb(255,0,0);stroke-width:2"/><polygon points="31.826736,187.48087 33.33403,162.9191 " style="fill:#cccccc;stroke:rgb(255,0,0);stroke-width:2"/><polygon points="33.33403,162.9191 65.62115,162.9191 " style="fill:#cccccc;stroke:rgb(255,0,0);stroke-width:2"/><polygon points="33.33403,162.9191 65.62115,142.23347 " style="fill:#cccccc;stroke:rgb(255,0,0);stroke-width:2"/><polygon points="65.62115,142.23347 65.62115,162.9191 " style="fill:#cccccc;stroke:rgb(255,0,0);stroke-width:2"/><polygon points="65.62115,142.23347 90.977844,160.85054 " style="fill:#cccccc;stroke:rgb(255,0,0);stroke-width:2"/><polygon points="63.139847,187.89838 65.62115,162.9191 " style="fill:#cccccc;stroke:rgb(255,0,0);stroke-width:2"/><polygon points="65.62115,162.9191 90.977844,160.85054 " style="fill:#cccccc;stroke:rgb(255,0,0);stroke-width:2"/><polygon points="94.3208,107.0679 119.433,107.0679 " style="fill:#cccccc;stroke:rgb(255,0,0);stroke-width:2"/><polygon points="94.3208,107.0679 101.83737,136.02779 " style="fill:#cccccc;stroke:rgb(255,0,0);stroke-width:2"/><polygon points="119.433,107.0679 144.5452,104.66789 " style="fill:#cccccc;stroke:rgb(255,0,0);stroke-width:2"/><polygon points="101.83737,136.02779 119.433,107.0679 " style="fill:#cccccc;stroke:rgb(255,0,0);stroke-width:2"/><polygon points="119.433,107.0679 122.46057,66.90972 " style="fill:#cccccc;stroke:rgb(255,0,0);stroke-width:2"/><polygon points="144.5452,104.66789 171.70068,82.35798 " style="fill:#cccccc;stroke:rgb(255,0,0);stroke-width:2"/><polygon points="144.5452,104.66789 145.55438,65.85414 " style="fill:#cccccc;stroke:rgb(255,0,0);stroke-width:2"/><polygon points="122.46057,66.90972 144.5452,104.66789 " style="fill:#cccccc;stroke:rgb(255,0,0);stroke-width:2"/><polygon points="90.977844,160.85054 101.83737,136.02779 " style="fill:#cccccc;stroke:rgb(255,0,0);stroke-width:2"/><polygon points="65.62115,142.23347 101.83737,136.02779 " style="fill:#cccccc;stroke:rgb(255,0,0);stroke-width:2"/><polygon points="63.139847,187.89838 90.977844,160.85054 " style="fill:#cccccc;stroke:rgb(255,0,0);stroke-width:2"/><polygon points="166.22592,31.618347 184.47517,31.574898 " style="fill:#cccccc;stroke:rgb(255,0,0);stroke-width:2"/><polygon points="166.22592,31.618347 171.70068,60.240593 " style="fill:#cccccc;stroke:rgb(255,0,0);stroke-width:2"/><polygon points="184.47517,31.574898 202.72441,31.531448 " style="fill:#cccccc;stroke:rgb(255,0,0);stroke-width:2"/><polygon points="171.70068,60.240593 184.47517,31.574898 " style="fill:#cccccc;stroke:rgb(255,0,0);stroke-width:2"/><polygon points="184.47517,31.574898 208.19917,56.554367 " style="fill:#cccccc;stroke:rgb(255,0,0);stroke-width:2"/><polygon points="202.72441,31.531448 220.97365,31.487997 " style="fill:#cccccc;stroke:rgb(255,0,0);stroke-width:2"/><polygon points="202.72441,31.531448 208.19917,56.554367 " style="fill:#cccccc;stroke:rgb(255,0,0);stroke-width:2"/><polygon points="166.22592,31.618347 202.72441,31.531448 " style="fill:#cccccc;stroke:rgb(255,0,0);stroke-width:2"/><polygon points="220.97365,31.487997 242.26443,30.734518 " style="fill:#cccccc;stroke:rgb(255,0,0);stroke-width:2"/><polygon points="208.19917,56.554367 220.97365,31.487997 " style="fill:#cccccc;stroke:rgb(255,0,0);stroke-width:2"/><polygon points="184.47517,31.574898 220.97365,31.487997 " style="fill:#cccccc;stroke:rgb(255,0,0);stroke-width:2"/><polygon points="171.70068,60.240593 171.70068,82.35798 " style="fill:#cccccc;stroke:rgb(255,0,0);stroke-width:2"/><polygon points="171.70068,82.35798 197.24963,78.67175 " style="fill:#cccccc;stroke:rgb(255,0,0);stroke-width:2"/><polygon points="171.70068,82.35798 193.5998,103.71807 " style="fill:#cccccc;stroke:rgb(255,0,0);stroke-width:2"/><polygon points="197.24963,78.67175 208.19917,56.554367 " style="fill:#cccccc;stroke:rgb(255,0,0);stroke-width:2"/><polygon points="208.19917,56.554367 219.14871,78.67175 " style="fill:#cccccc;stroke:rgb(255,0,0);stroke-width:2"/><polygon points="197.24963,78.67175 219.14871,78.67175 " style="fill:#cccccc;stroke:rgb(255,0,0);stroke-width:2"/><polygon points="193.5998,103.71807 197.24963,78.67175 " style="fill:#cccccc;stroke:rgb(255,0,0);stroke-width:2"/><polygon points="219.14871,78.67175 248.3475,82.01021 " style="fill:#cccccc;stroke:rgb(255,0,0);stroke-width:2"/><polygon points="219.14871,78.67175 248.3475,59.19728 " style="fill:#cccccc;stroke:rgb(255,0,0);stroke-width:2"/><polygon points="242.26443,30.734518 266.59674,30.681122 " style="fill:#cccccc;stroke:rgb(255,0,0);stroke-width:2"/><polygon points="242.26443,30.734518 248.3475,59.19728 " style="fill:#cccccc;stroke:rgb(255,0,0);stroke-width:2"/><polygon points="202.72441,31.531448 242.26443,30.734518 " style="fill:#cccccc;stroke:rgb(255,0,0);stroke-width:2"/><polygon points="266.59674,30.681122 290.95276,32.03826 " style="fill:#cccccc;stroke:rgb(255,0,0);stroke-width:2"/><polygon points="266.59674,30.681122 284.19925,59.19728 " style="fill:#cccccc;stroke:rgb(255,0,0);stroke-width:2"/><polygon points="248.3475,59.19728 266.59674,30.681122 " style="fill:#cccccc;stroke:rgb(255,0,0);stroke-width:2"/><polygon points="290.95276,32.03826 314.3781,33.02365 " style="fill:#cccccc;stroke:rgb(255,0,0);stroke-width:2"/><polygon points="284.19925,59.19728 290.95276,32.03826 " style="fill:#cccccc;stroke:rgb(255,0,0);stroke-width:2"/><polygon points="290.95276,32.03826 320.0196,60.62283 " style="fill:#cccccc;stroke:rgb(255,0,0);stroke-width:2"/><polygon points="248.3475,59.19728 248.3475,82.01021 " style="fill:#cccccc;stroke:rgb(255,0,0);stroke-width:2"/><polygon points="248.3475,82.01021 257.4721,106.57663 " style="fill:#cccccc;stroke:rgb(255,0,0);stroke-width:2"/><polygon points="239.22289,109.38571 248.3475,82.01021 " style="fill:#cccccc;stroke:rgb(255,0,0);stroke-width:2"/><polygon points="284.19925,59.19728 284.84598,82.01021 " style="fill:#cccccc;stroke:rgb(255,0,0);stroke-width:2"/><polygon points="284.19925,59.19728 320.0196,60.62283 " style="fill:#cccccc;stroke:rgb(255,0,0);stroke-width:2"/><polygon points="284.84598,82.01021 320.0196,82.913 " style="fill:#cccccc;stroke:rgb(255,0,0);stroke-width:2"/><polygon points="248.3475,82.01021 284.84598,82.01021 " style="fill:#cccccc;stroke:rgb(255,0,0);stroke-width:2"/><polygon points="257.4721,106.57663 284.84598,82.01021 " style="fill:#cccccc;stroke:rgb(255,0,0);stroke-width:2"/><polygon points="193.5998,103.71807 219.14871,78.67175 " style="fill:#cccccc;stroke:rgb(255,0,0);stroke-width:2"/><polygon points="193.5998,103.71807 239.22289,109.38571 " style="fill:#cccccc;stroke:rgb(255,0,0);stroke-width:2"/><polygon points="239.22289,109.38571 257.4721,106.57663 " style="fill:#cccccc;stroke:rgb(255,0,0);stroke-width:2"/><polygon points="219.14871,78.67175 239.22289,109.38571 " style="fill:#cccccc;stroke:rgb(255,0,0);stroke-width:2"/><polygon points="257.4721,106.57663 285.35736,133.33928 " style="fill:#cccccc;stroke:rgb(255,0,0);stroke-width:2"/><polygon points="285.35736,133.33928 291.89548,157.29286 " style="fill:#cccccc;stroke:rgb(255,0,0);stroke-width:2"/><polygon points="269.49597,157.29286 285.35736,133.33928 " style="fill:#cccccc;stroke:rgb(255,0,0);stroke-width:2"/><polygon points="285.35736,133.33928 312.50684,153.12167 " style="fill:#cccccc;stroke:rgb(255,0,0);stroke-width:2"/><polygon points="269.49597,157.29286 291.89548,157.29286 " style="fill:#cccccc;stroke:rgb(255,0,0);stroke-width:2"/><polygon points="269.1667,192.20932 269.49597,157.29286 " style="fill:#cccccc;stroke:rgb(255,0,0);stroke-width:2"/><polygon points="269.49597,157.29286 291.7857,192.20932 " style="fill:#cccccc;stroke:rgb(255,0,0);stroke-width:2"/><polygon points="291.89548,157.29286 312.50684,153.12167 " style="fill:#cccccc;stroke:rgb(255,0,0);stroke-width:2"/><polygon points="291.7857,192.20932 291.89548,157.29286 " style="fill:#cccccc;stroke:rgb(255,0,0);stroke-width:2"/><polygon points="31.826736,187.48087 63.139847,187.89838 " style="fill:#cccccc;stroke:rgb(255,0,0);stroke-width:2"/><polygon points="28.351671,218.88777 31.826736,187.48087 " style="fill:#cccccc;stroke:rgb(255,0,0);stroke-width:2"/><polygon points="31.826736,187.48087 59.821033,215.08562 " style="fill:#cccccc;stroke:rgb(255,0,0);stroke-width:2"/><polygon points="59.821033,215.08562 63.139847,187.89838 " style="fill:#cccccc;stroke:rgb(255,0,0);stroke-width:2"/><polygon points="63.139847,187.89838 89.33827,213.18454 " style="fill:#cccccc;stroke:rgb(255,0,0);stroke-width:2"/><polygon points="28.19542,241.7007 28.351671,218.88777 " style="fill:#cccccc;stroke:rgb(255,0,0);stroke-width:2"/><polygon points="28.351671,218.88777 50.33335,237.89854 " style="fill:#cccccc;stroke:rgb(255,0,0);stroke-width:2"/><polygon points="28.351671,218.88777 59.821033,215.08562 " style="fill:#cccccc;stroke:rgb(255,0,0);stroke-width:2"/><polygon points="28.19542,241.7007 50.33335,237.89854 " style="fill:#cccccc;stroke:rgb(255,0,0);stroke-width:2"/><polygon points="27.102644,268.66516 28.19542,241.7007 " style="fill:#cccccc;stroke:rgb(255,0,0);stroke-width:2"/><polygon points="28.19542,241.7007 50.54603,268.66516 " style="fill:#cccccc;stroke:rgb(255,0,0);stroke-width:2"/><polygon points="50.33335,237.89854 59.821033,215.08562 " style="fill:#cccccc;stroke:rgb(255,0,0);stroke-width:2"/><polygon points="59.821033,215.08562 69.308716,237.89854 " style="fill:#cccccc;stroke:rgb(255,0,0);stroke-width:2"/><polygon points="59.821033,215.08562 89.33827,213.18454 " style="fill:#cccccc;stroke:rgb(255,0,0);stroke-width:2"/><polygon points="50.33335,237.89854 69.308716,237.89854 " style="fill:#cccccc;stroke:rgb(255,0,0);stroke-width:2"/><polygon points="69.308716,237.89854 89.33827,239.79962 " style="fill:#cccccc;stroke:rgb(255,0,0);stroke-width:2"/><polygon points="69.308716,237.89854 73.98942,268.66516 " style="fill:#cccccc;stroke:rgb(255,0,0);stroke-width:2"/><polygon points="89.33827,213.18454 89.33827,239.79962 " style="fill:#cccccc;stroke:rgb(255,0,0);stroke-width:2"/><polygon points="69.308716,237.89854 89.33827,213.18454 " style="fill:#cccccc;stroke:rgb(255,0,0);stroke-width:2"/><polygon points="89.33827,239.79962 120.96388,234.82281 " style="fill:#cccccc;stroke:rgb(255,0,0);stroke-width:2"/><polygon points="73.98942,268.66516 89.33827,239.79962 " style="fill:#cccccc;stroke:rgb(255,0,0);stroke-width:2"/><polygon points="89.33827,213.18454 120.96388,234.82281 " style="fill:#cccccc;stroke:rgb(255,0,0);stroke-width:2"/><polygon points="103.293655,269.81494 120.96388,234.82281 " style="fill:#cccccc;stroke:rgb(255,0,0);stroke-width:2"/><polygon points="120.96388,234.82281 138.45872,270.21686 " style="fill:#cccccc;stroke:rgb(255,0,0);stroke-width:2"/><polygon points="27.102644,268.66516 50.54603,268.66516 " style="fill:#cccccc;stroke:rgb(255,0,0);stroke-width:2"/><polygon points="27.102644,268.66516 39.849533,295.49225 " style="fill:#cccccc;stroke:rgb(255,0,0);stroke-width:2"/><polygon points="27.102644,268.66516 50.33335,237.89854 " style="fill:#cccccc;stroke:rgb(255,0,0);stroke-width:2"/><polygon points="50.54603,268.66516 73.98942,268.66516 " style="fill:#cccccc;stroke:rgb(255,0,0);stroke-width:2"/><polygon points="39.849533,295.49225 50.54603,268.66516 " style="fill:#cccccc;stroke:rgb(255,0,0);stroke-width:2"/><polygon points="50.33335,237.89854 50.54603,268.66516 " style="fill:#cccccc;stroke:rgb(255,0,0);stroke-width:2"/><polygon points="73.98942,268.66516 103.293655,269.81494 " style="fill:#cccccc;stroke:rgb(255,0,0);stroke-width:2"/><polygon points="39.849533,295.49225 70.42392,307.56012 " style="fill:#cccccc;stroke:rgb(255,0,0);stroke-width:2"/><polygon points="39.849533,295.49225 73.98942,268.66516 " style="fill:#cccccc;stroke:rgb(255,0,0);stroke-width:2"/><polygon points="70.42392,307.56012 99.77714,298.73303 " style="fill:#cccccc;stroke:rgb(255,0,0);stroke-width:2"/><polygon points="70.42392,307.56012 99.77714,321.54593 " style="fill:#cccccc;stroke:rgb(255,0,0);stroke-width:2"/><polygon points="70.42392,307.56012 73.98942,268.66516 " style="fill:#cccccc;stroke:rgb(255,0,0);stroke-width:2"/><polygon points="99.77714,298.73303 103.293655,269.81494 " style="fill:#cccccc;stroke:rgb(255,0,0);stroke-width:2"/><polygon points="89.33827,239.79962 103.293655,269.81494 " style="fill:#cccccc;stroke:rgb(255,0,0);stroke-width:2"/><polygon points="103.293655,269.81494 138.45872,270.21686 " style="fill:#cccccc;stroke:rgb(255,0,0);stroke-width:2"/><polygon points="134.94221,294.8723 138.45872,270.21686 " style="fill:#cccccc;stroke:rgb(255,0,0);stroke-width:2"/><polygon points="138.45872,270.21686 173.34172,276.6114 " style="fill:#cccccc;stroke:rgb(255,0,0);stroke-width:2"/><polygon points="138.45872,270.21686 173.34172,258.23816 " style="fill:#cccccc;stroke:rgb(255,0,0);stroke-width:2"/><polygon points="99.77714,298.73303 99.77714,321.54593 " style="fill:#cccccc;stroke:rgb(255,0,0);stroke-width:2"/><polygon points="99.77714,298.73303 124.392685,317.50964 " style="fill:#cccccc;stroke:rgb(255,0,0);stroke-width:2"/><polygon points="99.77714,321.54593 124.392685,317.50964 " style="fill:#cccccc;stroke:rgb(255,0,0);stroke-width:2"/><polygon points="99.77714,321.54593 134.94221,294.8723 " style="fill:#cccccc;stroke:rgb(255,0,0);stroke-width:2"/><polygon points="134.94221,294.8723 145.49173,317.2921 " style="fill:#cccccc;stroke:rgb(255,0,0);stroke-width:2"/><polygon points="124.392685,317.50964 134.94221,294.8723 " style="fill:#cccccc;stroke:rgb(255,0,0);stroke-width:2"/><polygon points="134.94221,294.8723 169.88162,297.28128 " style="fill:#cccccc;stroke:rgb(255,0,0);stroke-width:2"/><polygon points="124.392685,317.50964 145.49173,317.2921 " style="fill:#cccccc;stroke:rgb(255,0,0);stroke-width:2"/><polygon points="145.49173,317.2921 169.88162,320.24783 " style="fill:#cccccc;stroke:rgb(255,0,0);stroke-width:2"/><polygon points="145.49173,317.2921 169.88162,297.28128 " style="fill:#cccccc;stroke:rgb(255,0,0);stroke-width:2"/><polygon points="173.34172,258.23816 190.1584,240.25128 " style="fill:#cccccc;stroke:rgb(255,0,0);stroke-width:2"/><polygon points="190.1584,240.25128 207.94266,258.23816 " style="fill:#cccccc;stroke:rgb(255,0,0);stroke-width:2"/><polygon points="190.1584,240.25128 222.42606,231.451 " style="fill:#cccccc;stroke:rgb(255,0,0);stroke-width:2"/><polygon points="173.34172,276.6114 190.1584,240.25128 " style="fill:#cccccc;stroke:rgb(255,0,0);stroke-width:2"/><polygon points="207.94266,258.23816 222.42606,231.451 " style="fill:#cccccc;stroke:rgb(255,0,0);stroke-width:2"/><polygon points="222.42606,231.451 254.69373,230.38292 " style="fill:#cccccc;stroke:rgb(255,0,0);stroke-width:2"/><polygon points="222.42606,231.451 244.70615,259.20813 " style="fill:#cccccc;stroke:rgb(255,0,0);stroke-width:2"/><polygon points="269.1667,192.20932 291.7857,192.20932 " style="fill:#cccccc;stroke:rgb(255,0,0);stroke-width:2"/><polygon points="269.1667,192.20932 294.0476,222.57143 " style="fill:#cccccc;stroke:rgb(255,0,0);stroke-width:2"/><polygon points="254.69373,230.38292 269.1667,192.20932 " style="fill:#cccccc;stroke:rgb(255,0,0);stroke-width:2"/><polygon points="291.7857,192.20932 312.5952,192.28125 " style="fill:#cccccc;stroke:rgb(255,0,0);stroke-width:2"/><polygon points="291.7857,192.20932 294.0476,222.57143 " style="fill:#cccccc;stroke:rgb(255,0,0);stroke-width:2"/><polygon points="244.70615,259.20813 254.69373,230.38292 " style="fill:#cccccc;stroke:rgb(255,0,0);stroke-width:2"/><polygon points="254.69373,230.38292 294.0476,222.57143 " style="fill:#cccccc;stroke:rgb(255,0,0);stroke-width:2"/><polygon points="294.0476,222.57143 321.1905,221.66667 " style="fill:#cccccc;stroke:rgb(255,0,0);stroke-width:2"/><polygon points="294.0476,222.57143 312.5952,192.28125 " style="fill:#cccccc;stroke:rgb(255,0,0);stroke-width:2"/><polygon points="283.6322,259.20813 294.0476,222.57143 " style="fill:#cccccc;stroke:rgb(255,0,0);stroke-width:2"/><polygon points="173.34172,258.23816 173.34172,276.6114 " style="fill:#cccccc;stroke:rgb(255,0,0);stroke-width:2"/><polygon points="173.34172,258.23816 207.94266,258.23816 " style="fill:#cccccc;stroke:rgb(255,0,0);stroke-width:2"/><polygon points="169.88162,297.28128 173.34172,276.6114 " style="fill:#cccccc;stroke:rgb(255,0,0);stroke-width:2"/><polygon points="173.34172,276.6114 207.94266,276.6114 " style="fill:#cccccc;stroke:rgb(255,0,0);stroke-width:2"/><polygon points="173.34172,276.6114 204.48256,293.3584 " style="fill:#cccccc;stroke:rgb(255,0,0);stroke-width:2"/><polygon points="207.94266,258.23816 207.94266,276.6114 " style="fill:#cccccc;stroke:rgb(255,0,0);stroke-width:2"/><polygon points="204.48256,293.3584 207.94266,276.6114 " style="fill:#cccccc;stroke:rgb(255,0,0);stroke-width:2"/><polygon points="207.94266,276.6114 244.70615,279.52133 " style="fill:#cccccc;stroke:rgb(255,0,0);stroke-width:2"/><polygon points="169.88162,297.28128 169.88162,320.24783 " style="fill:#cccccc;stroke:rgb(255,0,0);stroke-width:2"/><polygon points="169.88162,297.28128 194.10228,316.03958 " style="fill:#cccccc;stroke:rgb(255,0,0);stroke-width:2"/><polygon points="169.88162,320.24783 194.10228,316.03958 " style="fill:#cccccc;stroke:rgb(255,0,0);stroke-width:2"/><polygon points="134.94221,294.8723 169.88162,320.24783 " style="fill:#cccccc;stroke:rgb(255,0,0);stroke-width:2"/><polygon points="204.48256,293.3584 214.86284,315.82556 " style="fill:#cccccc;stroke:rgb(255,0,0);stroke-width:2"/><polygon points="194.10228,316.03958 204.48256,293.3584 " style="fill:#cccccc;stroke:rgb(255,0,0);stroke-width:2"/><polygon points="169.88162,297.28128 204.48256,293.3584 " style="fill:#cccccc;stroke:rgb(255,0,0);stroke-width:2"/><polygon points="194.10228,316.03958 214.86284,315.82556 " style="fill:#cccccc;stroke:rgb(255,0,0);stroke-width:2"/><polygon points="214.86284,315.82556 244.70615,320.14767 " style="fill:#cccccc;stroke:rgb(255,0,0);stroke-width:2"/><polygon points="214.86284,315.82556 244.70615,299.8345 " style="fill:#cccccc;stroke:rgb(255,0,0);stroke-width:2"/><polygon points="244.70615,259.20813 244.70615,279.52133 " style="fill:#cccccc;stroke:rgb(255,0,0);stroke-width:2"/><polygon points="207.94266,258.23816 244.70615,259.20813 " style="fill:#cccccc;stroke:rgb(255,0,0);stroke-width:2"/><polygon points="244.70615,279.52133 244.70615,299.8345 " style="fill:#cccccc;stroke:rgb(255,0,0);stroke-width:2"/><polygon points="244.70615,279.52133 283.46155,279.52133 " style="fill:#cccccc;stroke:rgb(255,0,0);stroke-width:2"/><polygon points="283.46155,279.52133 283.6322,259.20813 " style="fill:#cccccc;stroke:rgb(255,0,0);stroke-width:2"/><polygon points="283.6322,259.20813 314.14337,271.06616 " style="fill:#cccccc;stroke:rgb(255,0,0);stroke-width:2"/><polygon points="244.70615,259.20813 283.6322,259.20813 " style="fill:#cccccc;stroke:rgb(255,0,0);stroke-width:2"/><polygon points="278.96832,299.63385 283.46155,279.52133 " style="fill:#cccccc;stroke:rgb(255,0,0);stroke-width:2"/><polygon points="283.46155,279.52133 314.14337,271.06616 " style="fill:#cccccc;stroke:rgb(255,0,0);stroke-width:2"/><polygon points="244.70615,299.8345 244.70615,320.14767 " style="fill:#cccccc;stroke:rgb(255,0,0);stroke-width:2"/><polygon points="244.70615,299.8345 278.96832,299.63385 " style="fill:#cccccc;stroke:rgb(255,0,0);stroke-width:2"/><polygon points="244.70615,320.14767 278.96832,299.63385 " style="fill:#cccccc;stroke:rgb(255,0,0);stroke-width:2"/><polygon points="244.70615,279.52133 244.70615,320.14767 " style="fill:#cccccc;stroke:rgb(255,0,0);stroke-width:2"/><polygon points="278.96832,299.63385 286.5862,319.54572 " style="fill:#cccccc;stroke:rgb(255,0,0);stroke-width:2"/><polygon points="278.96832,299.63385 314.14337,308.73944 " style="fill:#cccccc;stroke:rgb(255,0,0);stroke-width:2"/><polygon points="286.5862,319.54572 314.14337,308.73944 " style="fill:#cccccc;stroke:rgb(255,0,0);stroke-width:2"/><polygon points="283.46155,279.52133 286.5862,319.54572 " style="fill:#cccccc;stroke:rgb(255,0,0);stroke-width:2"/><polygon points="244.70615,320.14767 286.5862,319.54572 " style="fill:#cccccc;stroke:rgb(255,0,0);stroke-width:2"/><polygon points="314.3781,33.02365 341.2758,32.869133 " style="fill:#cccccc;stroke:rgb(255,0,0);stroke-width:2"/><polygon points="314.3781,33.02365 320.0196,60.62283 " style="fill:#cccccc;stroke:rgb(255,0,0);stroke-width:2"/><polygon points="284.19925,59.19728 314.3781,33.02365 " style="fill:#cccccc;stroke:rgb(255,0,0);stroke-width:2"/><polygon points="341.2758,32.869133 359.50977,32.760117 " style="fill:#cccccc;stroke:rgb(255,0,0);stroke-width:2"/><polygon points="341.2758,32.869133 353.86835,60.62283 " style="fill:#cccccc;stroke:rgb(255,0,0);stroke-width:2"/><polygon points="320.0196,60.62283 341.2758,32.869133 " style="fill:#cccccc;stroke:rgb(255,0,0);stroke-width:2"/><polygon points="359.50977,32.760117 386.0246,25.481709 " style="fill:#cccccc;stroke:rgb(255,0,0);stroke-width:2"/><polygon points="353.86835,60.62283 359.50977,32.760117 " style="fill:#cccccc;stroke:rgb(255,0,0);stroke-width:2"/><polygon points="359.50977,32.760117 386.0246,44.94882 " style="fill:#cccccc;stroke:rgb(255,0,0);stroke-width:2"/><polygon points="320.0196,60.62283 320.0196,82.913 " style="fill:#cccccc;stroke:rgb(255,0,0);stroke-width:2"/><polygon points="320.0196,60.62283 353.86835,60.62283 " style="fill:#cccccc;stroke:rgb(255,0,0);stroke-width:2"/><polygon points="320.0196,82.913 335.79004,99.17965 " style="fill:#cccccc;stroke:rgb(255,0,0);stroke-width:2"/><polygon points="320.0196,82.913 353.86835,82.913 " style="fill:#cccccc;stroke:rgb(255,0,0);stroke-width:2"/><polygon points="353.86835,60.62283 353.86835,82.913 " style="fill:#cccccc;stroke:rgb(255,0,0);stroke-width:2"/><polygon points="353.86835,60.62283 386.0246,64.526306 " style="fill:#cccccc;stroke:rgb(255,0,0);stroke-width:2"/><polygon points="335.79004,99.17965 353.86835,82.913 " style="fill:#cccccc;stroke:rgb(255,0,0);stroke-width:2"/><polygon points="353.86835,82.913 386.0246,84.21416 " style="fill:#cccccc;stroke:rgb(255,0,0);stroke-width:2"/><polygon points="386.0246,25.481709 386.0246,44.94882 " style="fill:#cccccc;stroke:rgb(255,0,0);stroke-width:2"/><polygon points="386.0246,25.481709 408.8725,35.141678 " style="fill:#cccccc;stroke:rgb(255,0,0);stroke-width:2"/><polygon points="386.0246,25.481709 386.0246,64.526306 " style="fill:#cccccc;stroke:rgb(255,0,0);stroke-width:2"/><polygon points="386.0246,44.94882 386.0246,64.526306 " style="fill:#cccccc;stroke:rgb(255,0,0);stroke-width:2"/><polygon points="386.0246,44.94882 408.8725,35.141678 " style="fill:#cccccc;stroke:rgb(255,0,0);stroke-width:2"/><polygon points="408.8725,35.141678 431.72043,44.83844 " style="fill:#cccccc;stroke:rgb(255,0,0);stroke-width:2"/><polygon points="408.8725,35.141678 431.72043,25.15058 " style="fill:#cccccc;stroke:rgb(255,0,0);stroke-width:2"/><polygon points="431.72043,25.15058 431.72043,44.83844 " style="fill:#cccccc;stroke:rgb(255,0,0);stroke-width:2"/><polygon points="431.72043,25.15058 457.97357,31.80395 " style="fill:#cccccc;stroke:rgb(255,0,0);stroke-width:2"/><polygon points="431.72043,25.15058 431.72043,64.526306 " style="fill:#cccccc;stroke:rgb(255,0,0);stroke-width:2"/><polygon points="431.72043,44.83844 431.72043,64.526306 " style="fill:#cccccc;stroke:rgb(255,0,0);stroke-width:2"/><polygon points="431.72043,44.83844 457.97357,31.80395 " style="fill:#cccccc;stroke:rgb(255,0,0);stroke-width:2"/><polygon points="386.0246,64.526306 386.0246,84.21416 " style="fill:#cccccc;stroke:rgb(255,0,0);stroke-width:2"/><polygon points="386.0246,64.526306 408.8725,74.37023 " style="fill:#cccccc;stroke:rgb(255,0,0);stroke-width:2"/><polygon points="386.0246,84.21416 408.8725,74.37023 " style="fill:#cccccc;stroke:rgb(255,0,0);stroke-width:2"/><polygon points="381.56274,110.81476 386.0246,84.21416 " style="fill:#cccccc;stroke:rgb(255,0,0);stroke-width:2"/><polygon points="408.8725,74.37023 431.72043,64.526306 " style="fill:#cccccc;stroke:rgb(255,0,0);stroke-width:2"/><polygon points="408.8725,74.37023 431.72043,84.21416 " style="fill:#cccccc;stroke:rgb(255,0,0);stroke-width:2"/><polygon points="431.72043,64.526306 431.72043,84.21416 " style="fill:#cccccc;stroke:rgb(255,0,0);stroke-width:2"/><polygon points="431.72043,64.526306 463.48413,59.796383 " style="fill:#cccccc;stroke:rgb(255,0,0);stroke-width:2"/><polygon points="431.72043,84.21416 433.87445,114.26342 " style="fill:#cccccc;stroke:rgb(255,0,0);stroke-width:2"/><polygon points="431.72043,84.21416 463.48413,82.3607 " style="fill:#cccccc;stroke:rgb(255,0,0);stroke-width:2"/><polygon points="320.0196,60.62283 335.79004,99.17965 " style="fill:#cccccc;stroke:rgb(255,0,0);stroke-width:2"/><polygon points="335.79004,99.17965 353.86835,60.62283 " style="fill:#cccccc;stroke:rgb(255,0,0);stroke-width:2"/><polygon points="312.50684,153.12167 337.70584,143.27774 " style="fill:#cccccc;stroke:rgb(255,0,0);stroke-width:2"/><polygon points="312.50684,153.12167 340.74164,162.9656 " style="fill:#cccccc;stroke:rgb(255,0,0);stroke-width:2"/><polygon points="337.70584,143.27774 340.74164,162.9656 " style="fill:#cccccc;stroke:rgb(255,0,0);stroke-width:2"/><polygon points="337.70584,143.27774 341.0952,182.5454 " style="fill:#cccccc;stroke:rgb(255,0,0);stroke-width:2"/><polygon points="335.79004,99.17965 337.70584,143.27774 " style="fill:#cccccc;stroke:rgb(255,0,0);stroke-width:2"/><polygon points="340.74164,162.9656 341.0952,182.5454 " style="fill:#cccccc;stroke:rgb(255,0,0);stroke-width:2"/><polygon points="339.73163,202.0171 340.74164,162.9656 " style="fill:#cccccc;stroke:rgb(255,0,0);stroke-width:2"/><polygon points="381.56274,110.81476 407.71857,110.933395 " style="fill:#cccccc;stroke:rgb(255,0,0);stroke-width:2"/><polygon points="381.56274,110.81476 400.8095,139.05891 " style="fill:#cccccc;stroke:rgb(255,0,0);stroke-width:2"/><polygon points="353.86835,82.913 381.56274,110.81476 " style="fill:#cccccc;stroke:rgb(255,0,0);stroke-width:2"/><polygon points="407.71857,110.933395 433.87445,114.26342 " style="fill:#cccccc;stroke:rgb(255,0,0);stroke-width:2"/><polygon points="400.8095,139.05891 407.71857,110.933395 " style="fill:#cccccc;stroke:rgb(255,0,0);stroke-width:2"/><polygon points="386.0246,84.21416 407.71857,110.933395 " style="fill:#cccccc;stroke:rgb(255,0,0);stroke-width:2"/><polygon points="431.5714,139.05891 433.87445,114.26342 " style="fill:#cccccc;stroke:rgb(255,0,0);stroke-width:2"/><polygon points="433.87445,114.26342 463.73572,123.33037 " style="fill:#cccccc;stroke:rgb(255,0,0);stroke-width:2"/><polygon points="400.8095,139.05891 402.1815,161.55933 " style="fill:#cccccc;stroke:rgb(255,0,0);stroke-width:2"/><polygon points="400.8095,139.05891 431.5714,139.05891 " style="fill:#cccccc;stroke:rgb(255,0,0);stroke-width:2"/><polygon points="402.1815,161.55933 431.5714,161.55933 " style="fill:#cccccc;stroke:rgb(255,0,0);stroke-width:2"/><polygon points="391.6111,189.49957 402.1815,161.55933 " style="fill:#cccccc;stroke:rgb(255,0,0);stroke-width:2"/><polygon points="402.1815,161.55933 413.0238,189.49957 " style="fill:#cccccc;stroke:rgb(255,0,0);stroke-width:2"/><polygon points="431.5714,139.05891 431.5714,161.55933 " style="fill:#cccccc;stroke:rgb(255,0,0);stroke-width:2"/><polygon points="431.5714,139.05891 463.73572,143.12204 " style="fill:#cccccc;stroke:rgb(255,0,0);stroke-width:2"/><polygon points="431.5714,161.55933 434.43652,189.49957 " style="fill:#cccccc;stroke:rgb(255,0,0);stroke-width:2"/><polygon points="431.5714,161.55933 463.73572,162.9137 " style="fill:#cccccc;stroke:rgb(255,0,0);stroke-width:2"/><polygon points="457.97357,31.80395 480.01593,31.697464 " style="fill:#cccccc;stroke:rgb(255,0,0);stroke-width:2"/><polygon points="457.97357,31.80395 463.48413,59.796383 " style="fill:#cccccc;stroke:rgb(255,0,0);stroke-width:2"/><polygon points="480.01593,31.697464 502.05835,31.59098 " style="fill:#cccccc;stroke:rgb(255,0,0);stroke-width:2"/><polygon points="463.48413,59.796383 480.01593,31.697464 " style="fill:#cccccc;stroke:rgb(255,0,0);stroke-width:2"/><polygon points="480.01593,31.697464 496.54773,59.796383 " style="fill:#cccccc;stroke:rgb(255,0,0);stroke-width:2"/><polygon points="496.54773,59.796383 502.05835,31.59098 " style="fill:#cccccc;stroke:rgb(255,0,0);stroke-width:2"/><polygon points="502.05835,31.59098 530.8722,24.372023 " style="fill:#cccccc;stroke:rgb(255,0,0);stroke-width:2"/><polygon points="502.05835,31.59098 530.8722,44.16369 " style="fill:#cccccc;stroke:rgb(255,0,0);stroke-width:2"/><polygon points="463.48413,59.796383 463.48413,82.3607 " style="fill:#cccccc;stroke:rgb(255,0,0);stroke-width:2"/><polygon points="463.48413,82.3607 463.73572,103.5387 " style="fill:#cccccc;stroke:rgb(255,0,0);stroke-width:2"/><polygon points="463.48413,82.3607 496.54773,82.3607 " style="fill:#cccccc;stroke:rgb(255,0,0);stroke-width:2"/><polygon points="496.54773,59.796383 496.54773,82.3607 " style="fill:#cccccc;stroke:rgb(255,0,0);stroke-width:2"/><polygon points="463.48413,59.796383 496.54773,59.796383 " style="fill:#cccccc;stroke:rgb(255,0,0);stroke-width:2"/><polygon points="496.54773,82.3607 497.30237,103.5387 " style="fill:#cccccc;stroke:rgb(255,0,0);stroke-width:2"/><polygon points="496.54773,82.3607 532.3666,83.74703 " style="fill:#cccccc;stroke:rgb(255,0,0);stroke-width:2"/><polygon points="530.8722,24.372023 530.8722,44.16369 " style="fill:#cccccc;stroke:rgb(255,0,0);stroke-width:2"/><polygon points="530.8722,24.372023 532.3666,63.95536 " style="fill:#cccccc;stroke:rgb(255,0,0);stroke-width:2"/><polygon points="496.54773,59.796383 530.8722,24.372023 " style="fill:#cccccc;stroke:rgb(255,0,0);stroke-width:2"/><polygon points="530.8722,44.16369 532.3666,63.95536 " style="fill:#cccccc;stroke:rgb(255,0,0);stroke-width:2"/><polygon points="496.54773,59.796383 530.8722,44.16369 " style="fill:#cccccc;stroke:rgb(255,0,0);stroke-width:2"/><polygon points="532.3666,63.95536 532.3666,83.74703 " style="fill:#cccccc;stroke:rgb(255,0,0);stroke-width:2"/><polygon points="496.54773,59.796383 532.3666,63.95536 " style="fill:#cccccc;stroke:rgb(255,0,0);stroke-width:2"/><polygon points="532.3666,63.95536 570.33496,63.95536 " style="fill:#cccccc;stroke:rgb(255,0,0);stroke-width:2"/><polygon points="528.1321,110.60715 532.3666,83.74703 " style="fill:#cccccc;stroke:rgb(255,0,0);stroke-width:2"/><polygon points="532.3666,83.74703 552.44763,110.60715 " style="fill:#cccccc;stroke:rgb(255,0,0);stroke-width:2"/><polygon points="570.33496,63.95536 570.9408,83.74703 " style="fill:#cccccc;stroke:rgb(255,0,0);stroke-width:2"/><polygon points="532.3666,83.74703 570.33496,63.95536 " style="fill:#cccccc;stroke:rgb(255,0,0);stroke-width:2"/><polygon points="530.8722,44.16369 570.33496,63.95536 " style="fill:#cccccc;stroke:rgb(255,0,0);stroke-width:2"/><polygon points="570.9408,83.74703 578.0222,110.60715 " style="fill:#cccccc;stroke:rgb(255,0,0);stroke-width:2"/><polygon points="552.44763,110.60715 570.9408,83.74703 " style="fill:#cccccc;stroke:rgb(255,0,0);stroke-width:2"/><polygon points="532.3666,83.74703 570.9408,83.74703 " style="fill:#cccccc;stroke:rgb(255,0,0);stroke-width:2"/><polygon points="463.73572,103.5387 463.73572,123.33037 " style="fill:#cccccc;stroke:rgb(255,0,0);stroke-width:2"/><polygon points="433.87445,114.26342 463.73572,103.5387 " style="fill:#cccccc;stroke:rgb(255,0,0);stroke-width:2"/><polygon points="463.73572,103.5387 497.30237,103.5387 " style="fill:#cccccc;stroke:rgb(255,0,0);stroke-width:2"/><polygon points="463.73572,123.33037 463.73572,143.12204 " style="fill:#cccccc;stroke:rgb(255,0,0);stroke-width:2"/><polygon points="463.73572,123.33037 497.30237,123.33037 " style="fill:#cccccc;stroke:rgb(255,0,0);stroke-width:2"/><polygon points="497.30237,103.5387 497.30237,123.33037 " style="fill:#cccccc;stroke:rgb(255,0,0);stroke-width:2"/><polygon points="497.30237,103.5387 528.1321,110.60715 " style="fill:#cccccc;stroke:rgb(255,0,0);stroke-width:2"/><polygon points="497.30237,123.33037 497.30237,143.12204 " style="fill:#cccccc;stroke:rgb(255,0,0);stroke-width:2"/><polygon points="497.30237,123.33037 528.1321,110.60715 " style="fill:#cccccc;stroke:rgb(255,0,0);stroke-width:2"/><polygon points="463.73572,143.12204 463.73572,162.9137 " style="fill:#cccccc;stroke:rgb(255,0,0);stroke-width:2"/><polygon points="463.73572,143.12204 497.30237,143.12204 " style="fill:#cccccc;stroke:rgb(255,0,0);stroke-width:2"/><polygon points="463.73572,162.9137 471.7768,189.77383 " style="fill:#cccccc;stroke:rgb(255,0,0);stroke-width:2"/><polygon points="454.02087,189.77383 463.73572,162.9137 " style="fill:#cccccc;stroke:rgb(255,0,0);stroke-width:2"/><polygon points="497.30237,143.12204 497.30237,162.9137 " style="fill:#cccccc;stroke:rgb(255,0,0);stroke-width:2"/><polygon points="497.30237,143.12204 532.2488,138.88097 " style="fill:#cccccc;stroke:rgb(255,0,0);stroke-width:2"/><polygon points="489.53278,189.77383 497.30237,162.9137 " style="fill:#cccccc;stroke:rgb(255,0,0);stroke-width:2"/><polygon points="497.30237,162.9137 507.2887,189.77383 " style="fill:#cccccc;stroke:rgb(255,0,0);stroke-width:2"/><polygon points="463.73572,162.9137 497.30237,162.9137 " style="fill:#cccccc;stroke:rgb(255,0,0);stroke-width:2"/><polygon points="528.1321,110.60715 552.44763,110.60715 " style="fill:#cccccc;stroke:rgb(255,0,0);stroke-width:2"/><polygon points="528.1321,110.60715 532.2488,138.88097 " style="fill:#cccccc;stroke:rgb(255,0,0);stroke-width:2"/><polygon points="552.44763,110.60715 578.0222,110.60715 " style="fill:#cccccc;stroke:rgb(255,0,0);stroke-width:2"/><polygon points="552.44763,110.60715 568.57495,138.88097 " style="fill:#cccccc;stroke:rgb(255,0,0);stroke-width:2"/><polygon points="568.57495,138.88097 578.0222,110.60715 " style="fill:#cccccc;stroke:rgb(255,0,0);stroke-width:2"/><polygon points="570.33496,63.95536 578.0222,110.60715 " style="fill:#cccccc;stroke:rgb(255,0,0);stroke-width:2"/><polygon points="532.2488,138.88097 532.2488,161.50002 " style="fill:#cccccc;stroke:rgb(255,0,0);stroke-width:2"/><polygon points="532.2488,138.88097 552.44763,110.60715 " style="fill:#cccccc;stroke:rgb(255,0,0);stroke-width:2"/><polygon points="532.2488,161.50002 533.9226,189.77383 " style="fill:#cccccc;stroke:rgb(255,0,0);stroke-width:2"/><polygon points="497.30237,162.9137 532.2488,161.50002 " style="fill:#cccccc;stroke:rgb(255,0,0);stroke-width:2"/><polygon points="532.2488,161.50002 568.34875,161.50002 " style="fill:#cccccc;stroke:rgb(255,0,0);stroke-width:2"/><polygon points="568.34875,161.50002 568.57495,138.88097 " style="fill:#cccccc;stroke:rgb(255,0,0);stroke-width:2"/><polygon points="532.2488,138.88097 568.57495,138.88097 " style="fill:#cccccc;stroke:rgb(255,0,0);stroke-width:2"/><polygon points="568.34875,161.50002 569.4346,189.77383 " style="fill:#cccccc;stroke:rgb(255,0,0);stroke-width:2"/><polygon points="532.2488,138.88097 568.34875,161.50002 " style="fill:#cccccc;stroke:rgb(255,0,0);stroke-width:2"/><polygon points="312.5952,192.28125 339.73163,202.0171 " style="fill:#cccccc;stroke:rgb(255,0,0);stroke-width:2"/><polygon points="312.5952,192.28125 341.0952,182.5454 " style="fill:#cccccc;stroke:rgb(255,0,0);stroke-width:2"/><polygon points="312.5952,192.28125 321.1905,221.66667 " style="fill:#cccccc;stroke:rgb(255,0,0);stroke-width:2"/><polygon points="339.73163,202.0171 341.0952,182.5454 " style="fill:#cccccc;stroke:rgb(255,0,0);stroke-width:2"/><polygon points="321.1905,221.66667 339.73163,202.0171 " style="fill:#cccccc;stroke:rgb(255,0,0);stroke-width:2"/><polygon points="291.7857,192.20932 321.1905,221.66667 " style="fill:#cccccc;stroke:rgb(255,0,0);stroke-width:2"/><polygon points="391.6111,189.49957 413.0238,189.49957 " style="fill:#cccccc;stroke:rgb(255,0,0);stroke-width:2"/><polygon points="387.03247,220.01065 391.6111,189.49957 " style="fill:#cccccc;stroke:rgb(255,0,0);stroke-width:2"/><polygon points="391.6111,189.49957 434.43652,189.49957 " style="fill:#cccccc;stroke:rgb(255,0,0);stroke-width:2"/><polygon points="413.0238,189.49957 434.43652,189.49957 " style="fill:#cccccc;stroke:rgb(255,0,0);stroke-width:2"/><polygon points="413.0238,189.49957 425.77274,217.31631 " style="fill:#cccccc;stroke:rgb(255,0,0);stroke-width:2"/><polygon points="434.43652,189.49957 454.02087,189.77383 " style="fill:#cccccc;stroke:rgb(255,0,0);stroke-width:2"/><polygon points="425.77274,217.31631 434.43652,189.49957 " style="fill:#cccccc;stroke:rgb(255,0,0);stroke-width:2"/><polygon points="387.03247,220.01065 387.03247,239.5697 " style="fill:#cccccc;stroke:rgb(255,0,0);stroke-width:2"/><polygon points="387.03247,220.01065 425.77274,217.31631 " style="fill:#cccccc;stroke:rgb(255,0,0);stroke-width:2"/><polygon points="387.03247,220.01065 413.0238,189.49957 " style="fill:#cccccc;stroke:rgb(255,0,0);stroke-width:2"/><polygon points="378.85394,268.00458 387.03247,239.5697 " style="fill:#cccccc;stroke:rgb(255,0,0);stroke-width:2"/><polygon points="387.03247,239.5697 397.79364,268.00458 " style="fill:#cccccc;stroke:rgb(255,0,0);stroke-width:2"/><polygon points="358.336,260.37024 387.03247,239.5697 " style="fill:#cccccc;stroke:rgb(255,0,0);stroke-width:2"/><polygon points="425.77274,217.31631 425.77274,240.31305 " style="fill:#cccccc;stroke:rgb(255,0,0);stroke-width:2"/><polygon points="425.77274,217.31631 456.98016,229.35715 " style="fill:#cccccc;stroke:rgb(255,0,0);stroke-width:2"/><polygon points="416.73334,268.00458 425.77274,240.31305 " style="fill:#cccccc;stroke:rgb(255,0,0);stroke-width:2"/><polygon points="425.77274,240.31305 435.67303,268.00458 " style="fill:#cccccc;stroke:rgb(255,0,0);stroke-width:2"/><polygon points="425.77274,240.31305 456.98016,229.35715 " style="fill:#cccccc;stroke:rgb(255,0,0);stroke-width:2"/><polygon points="314.14337,271.06616 314.14337,308.73944 " style="fill:#cccccc;stroke:rgb(255,0,0);stroke-width:2"/><polygon points="314.14337,271.06616 358.336,279.7179 " style="fill:#cccccc;stroke:rgb(255,0,0);stroke-width:2"/><polygon points="358.336,260.37024 358.336,279.7179 " style="fill:#cccccc;stroke:rgb(255,0,0);stroke-width:2"/><polygon points="358.336,260.37024 378.85394,268.00458 " style="fill:#cccccc;stroke:rgb(255,0,0);stroke-width:2"/><polygon points="358.336,260.37024 358.336,298.60083 " style="fill:#cccccc;stroke:rgb(255,0,0);stroke-width:2"/><polygon points="358.336,279.7179 358.336,298.60083 " style="fill:#cccccc;stroke:rgb(255,0,0);stroke-width:2"/><polygon points="358.336,279.7179 378.85394,268.00458 " style="fill:#cccccc;stroke:rgb(255,0,0);stroke-width:2"/><polygon points="358.336,279.7179 384.5359,295.7771 " style="fill:#cccccc;stroke:rgb(255,0,0);stroke-width:2"/><polygon points="283.46155,279.52133 314.14337,308.73944 " style="fill:#cccccc;stroke:rgb(255,0,0);stroke-width:2"/><polygon points="358.336,298.60083 359.3302,317.019 " style="fill:#cccccc;stroke:rgb(255,0,0);stroke-width:2"/><polygon points="358.336,298.60083 384.5359,295.7771 " style="fill:#cccccc;stroke:rgb(255,0,0);stroke-width:2"/><polygon points="358.336,298.60083 384.5359,316.7058 " style="fill:#cccccc;stroke:rgb(255,0,0);stroke-width:2"/><polygon points="359.3302,317.019 384.5359,316.7058 " style="fill:#cccccc;stroke:rgb(255,0,0);stroke-width:2"/><polygon points="359.3302,317.019 384.5359,295.7771 " style="fill:#cccccc;stroke:rgb(255,0,0);stroke-width:2"/><polygon points="358.336,279.7179 359.3302,317.019 " style="fill:#cccccc;stroke:rgb(255,0,0);stroke-width:2"/><polygon points="378.85394,268.00458 397.79364,268.00458 " style="fill:#cccccc;stroke:rgb(255,0,0);stroke-width:2"/><polygon points="378.85394,268.00458 384.5359,295.7771 " style="fill:#cccccc;stroke:rgb(255,0,0);stroke-width:2"/><polygon points="397.79364,268.00458 416.73334,268.00458 " style="fill:#cccccc;stroke:rgb(255,0,0);stroke-width:2"/><polygon points="384.5359,295.7771 397.79364,268.00458 " style="fill:#cccccc;stroke:rgb(255,0,0);stroke-width:2"/><polygon points="416.73334,268.00458 435.67303,268.00458 " style="fill:#cccccc;stroke:rgb(255,0,0);stroke-width:2"/><polygon points="416.73334,268.00458 429.99112,296.1304 " style="fill:#cccccc;stroke:rgb(255,0,0);stroke-width:2"/><polygon points="435.67303,268.00458 462.64313,268.86514 " style="fill:#cccccc;stroke:rgb(255,0,0);stroke-width:2"/><polygon points="429.99112,296.1304 435.67303,268.00458 " style="fill:#cccccc;stroke:rgb(255,0,0);stroke-width:2"/><polygon points="384.5359,295.7771 384.5359,316.7058 " style="fill:#cccccc;stroke:rgb(255,0,0);stroke-width:2"/><polygon points="384.5359,295.7771 407.2635,306.477 " style="fill:#cccccc;stroke:rgb(255,0,0);stroke-width:2"/><polygon points="384.5359,316.7058 407.2635,306.477 " style="fill:#cccccc;stroke:rgb(255,0,0);stroke-width:2"/><polygon points="407.2635,306.477 429.99112,296.1304 " style="fill:#cccccc;stroke:rgb(255,0,0);stroke-width:2"/><polygon points="407.2635,306.477 429.99112,317.76566 " style="fill:#cccccc;stroke:rgb(255,0,0);stroke-width:2"/><polygon points="429.99112,296.1304 429.99112,317.76566 " style="fill:#cccccc;stroke:rgb(255,0,0);stroke-width:2"/><polygon points="429.99112,296.1304 459.34766,296.6822 " style="fill:#cccccc;stroke:rgb(255,0,0);stroke-width:2"/><polygon points="429.99112,317.76566 459.34766,318.5384 " style="fill:#cccccc;stroke:rgb(255,0,0);stroke-width:2"/><polygon points="429.99112,317.76566 459.34766,296.6822 " style="fill:#cccccc;stroke:rgb(255,0,0);stroke-width:2"/><polygon points="454.02087,189.77383 471.7768,189.77383 " style="fill:#cccccc;stroke:rgb(255,0,0);stroke-width:2"/><polygon points="454.02087,189.77383 489.53278,189.77383 " style="fill:#cccccc;stroke:rgb(255,0,0);stroke-width:2"/><polygon points="471.7768,189.77383 489.53278,189.77383 " style="fill:#cccccc;stroke:rgb(255,0,0);stroke-width:2"/><polygon points="471.7768,189.77383 507.2887,189.77383 " style="fill:#cccccc;stroke:rgb(255,0,0);stroke-width:2"/><polygon points="489.53278,189.77383 507.2887,189.77383 " style="fill:#cccccc;stroke:rgb(255,0,0);stroke-width:2"/><polygon points="507.2887,189.77383 533.9226,189.77383 " style="fill:#cccccc;stroke:rgb(255,0,0);stroke-width:2"/><polygon points="456.98016,229.35715 480.6548,229.35715 " style="fill:#cccccc;stroke:rgb(255,0,0);stroke-width:2"/><polygon points="454.02087,189.77383 456.98016,229.35715 " style="fill:#cccccc;stroke:rgb(255,0,0);stroke-width:2"/><polygon points="480.6548,229.35715 504.32938,229.35715 " style="fill:#cccccc;stroke:rgb(255,0,0);stroke-width:2"/><polygon points="480.6548,229.35715 497.64368,262.09354 " style="fill:#cccccc;stroke:rgb(255,0,0);stroke-width:2"/><polygon points="471.7768,189.77383 480.6548,229.35715 " style="fill:#cccccc;stroke:rgb(255,0,0);stroke-width:2"/><polygon points="504.32938,229.35715 530.37146,229.35715 " style="fill:#cccccc;stroke:rgb(255,0,0);stroke-width:2"/><polygon points="497.64368,262.09354 504.32938,229.35715 " style="fill:#cccccc;stroke:rgb(255,0,0);stroke-width:2"/><polygon points="504.32938,229.35715 507.2887,189.77383 " style="fill:#cccccc;stroke:rgb(255,0,0);stroke-width:2"/><polygon points="533.9226,189.77383 555.22974,218.04764 " style="fill:#cccccc;stroke:rgb(255,0,0);stroke-width:2"/><polygon points="533.9226,189.77383 569.4346,189.77383 " style="fill:#cccccc;stroke:rgb(255,0,0);stroke-width:2"/><polygon points="569.4346,189.77383 576.53687,218.04764 " style="fill:#cccccc;stroke:rgb(255,0,0);stroke-width:2"/><polygon points="555.22974,218.04764 569.4346,189.77383 " style="fill:#cccccc;stroke:rgb(255,0,0);stroke-width:2"/><polygon points="530.37146,229.35715 555.22974,218.04764 " style="fill:#cccccc;stroke:rgb(255,0,0);stroke-width:2"/><polygon points="530.37146,229.35715 555.22974,240.66666 " style="fill:#cccccc;stroke:rgb(255,0,0);stroke-width:2"/><polygon points="529.1349,267.8095 530.37146,229.35715 " style="fill:#cccccc;stroke:rgb(255,0,0);stroke-width:2"/><polygon points="555.22974,218.04764 576.53687,218.04764 " style="fill:#cccccc;stroke:rgb(255,0,0);stroke-width:2"/><polygon points="555.22974,218.04764 555.22974,240.66666 " style="fill:#cccccc;stroke:rgb(255,0,0);stroke-width:2"/><polygon points="555.22974,218.04764 576.53687,240.66666 " style="fill:#cccccc;stroke:rgb(255,0,0);stroke-width:2"/><polygon points="576.53687,218.04764 576.53687,240.66666 " style="fill:#cccccc;stroke:rgb(255,0,0);stroke-width:2"/><polygon points="555.22974,240.66666 576.53687,218.04764 " style="fill:#cccccc;stroke:rgb(255,0,0);stroke-width:2"/><polygon points="555.22974,240.66666 576.53687,240.66666 " style="fill:#cccccc;stroke:rgb(255,0,0);stroke-width:2"/><polygon points="552.3572,267.8095 555.22974,240.66666 " style="fill:#cccccc;stroke:rgb(255,0,0);stroke-width:2"/><polygon points="575.57935,267.8095 576.53687,240.66666 " style="fill:#cccccc;stroke:rgb(255,0,0);stroke-width:2"/><polygon points="459.34766,296.6822 462.64313,268.86514 " style="fill:#cccccc;stroke:rgb(255,0,0);stroke-width:2"/><polygon points="462.64313,268.86514 497.64368,262.09354 " style="fill:#cccccc;stroke:rgb(255,0,0);stroke-width:2"/><polygon points="456.98016,229.35715 462.64313,268.86514 " style="fill:#cccccc;stroke:rgb(255,0,0);stroke-width:2"/><polygon points="494.85956,293.26028 497.64368,262.09354 " style="fill:#cccccc;stroke:rgb(255,0,0);stroke-width:2"/><polygon points="497.64368,262.09354 529.1349,267.8095 " style="fill:#cccccc;stroke:rgb(255,0,0);stroke-width:2"/><polygon points="459.34766,296.6822 459.34766,318.5384 " style="fill:#cccccc;stroke:rgb(255,0,0);stroke-width:2"/><polygon points="459.34766,296.6822 484.206,315.44766 " style="fill:#cccccc;stroke:rgb(255,0,0);stroke-width:2"/><polygon points="459.34766,318.5384 484.206,315.44766 " style="fill:#cccccc;stroke:rgb(255,0,0);stroke-width:2"/><polygon points="429.99112,296.1304 459.34766,318.5384 " style="fill:#cccccc;stroke:rgb(255,0,0);stroke-width:2"/><polygon points="484.206,315.44766 494.85956,293.26028 " style="fill:#cccccc;stroke:rgb(255,0,0);stroke-width:2"/><polygon points="494.85956,293.26028 505.51312,315.77887 " style="fill:#cccccc;stroke:rgb(255,0,0);stroke-width:2"/><polygon points="459.34766,296.6822 494.85956,293.26028 " style="fill:#cccccc;stroke:rgb(255,0,0);stroke-width:2"/><polygon points="484.206,315.44766 505.51312,315.77887 " style="fill:#cccccc;stroke:rgb(255,0,0);stroke-width:2"/><polygon points="505.51312,315.77887 530.7923,319.26785 " style="fill:#cccccc;stroke:rgb(255,0,0);stroke-width:2"/><polygon points="505.51312,315.77887 532.25903,296.1187 " style="fill:#cccccc;stroke:rgb(255,0,0);stroke-width:2"/><polygon points="529.1349,267.8095 552.3572,267.8095 " style="fill:#cccccc;stroke:rgb(255,0,0);stroke-width:2"/><polygon points="529.1349,267.8095 532.25903,296.1187 " style="fill:#cccccc;stroke:rgb(255,0,0);stroke-width:2"/><polygon points="529.1349,267.8095 555.22974,240.66666 " style="fill:#cccccc;stroke:rgb(255,0,0);stroke-width:2"/><polygon points="552.3572,267.8095 575.57935,267.8095 " style="fill:#cccccc;stroke:rgb(255,0,0);stroke-width:2"/><polygon points="532.25903,296.1187 552.3572,267.8095 " style="fill:#cccccc;stroke:rgb(255,0,0);stroke-width:2"/><polygon points="555.22974,240.66666 575.57935,267.8095 " style="fill:#cccccc;stroke:rgb(255,0,0);stroke-width:2"/><polygon points="529.1349,267.8095 575.57935,267.8095 " style="fill:#cccccc;stroke:rgb(255,0,0);stroke-width:2"/><polygon points="530.7923,319.26785 532.25903,296.1187 " style="fill:#cccccc;stroke:rgb(255,0,0);stroke-width:2"/><polygon points="494.85956,293.26028 530.7923,319.26785 " style="fill:#cccccc;stroke:rgb(255,0,0);stroke-width:2"/><polygon points="484.206,315.44766 530.7923,319.26785 " style="fill:#cccccc;stroke:rgb(255,0,0);stroke-width:2"/></svg>